<svg width="193" height="201" viewBox="0 0 193 201" fill="none" xmlns="http://www.w3.org/2000/svg">
<rect x="0.5" y="0.5" width="192" height="200" rx="4.5" fill="white" stroke="#F3F3F3"/>
<path d="M43.7954 143.994V149.214C43.7954 150.87 43.5974 151.77 43.3634 152.364C42.9854 153.264 42.3374 154.038 41.4554 153.984V158.7H43.6154V156H50.9954V158.7H53.1554V153.984H51.8954V143.994H43.7954ZM46.0634 146.01H49.5554V153.984H44.7134C45.0554 153.642 45.3794 153.228 45.6494 152.562C45.8654 151.986 46.0634 151.068 46.0634 149.214V146.01ZM60.012 153.498C59.652 154.128 59.04 154.524 58.194 154.524C57.348 154.524 56.862 154.128 56.628 153.786C56.358 153.444 56.25 152.958 56.25 152.472H62.082V152.292C62.082 151.41 61.974 150.258 61.146 149.232C60.588 148.584 59.688 147.954 58.104 147.954C57.168 147.954 56.088 148.17 55.17 149.052C54.612 149.61 53.982 150.546 53.982 152.112C53.982 153.336 54.342 154.344 55.206 155.154C55.98 155.892 56.916 156.252 58.194 156.252C60.93 156.252 61.794 154.398 62.028 153.822L60.012 153.498ZM56.322 151.068C56.52 150.006 57.348 149.502 58.158 149.502C58.968 149.502 59.814 149.988 60.012 151.068H56.322ZM65.9783 154.992C66.8423 156.144 67.9403 156.252 68.4803 156.252C69.6323 156.252 70.5323 155.802 71.1263 155.244C71.5763 154.794 72.3503 153.876 72.3503 152.094C72.3503 150.528 71.7563 149.574 71.1803 148.998C70.2983 148.116 69.1823 147.954 68.5163 147.954C67.0763 147.954 66.3203 148.728 65.9783 149.214V148.206H63.7823V160.122H65.9783V154.992ZM67.9223 149.898C68.4443 149.898 69.0023 150.096 69.4163 150.456C69.8483 150.87 70.0823 151.518 70.0823 152.094C70.0823 152.67 69.8843 153.318 69.3983 153.75C69.1103 154.02 68.6423 154.308 67.9223 154.308C67.2203 154.308 66.7703 154.056 66.4823 153.786C66.0503 153.408 65.7623 152.814 65.7623 152.094C65.7623 151.392 66.0143 150.834 66.5003 150.42C66.8783 150.078 67.3643 149.898 67.9223 149.898ZM73.2199 156H75.4159L76.0639 151.77L78.0079 156H78.7999L80.7439 151.77L81.3919 156H83.5879L82.1659 148.206H80.5459L78.4039 152.688L76.2619 148.206H74.6419L73.2199 156ZM90.8169 149.214C90.0969 148.062 88.8909 147.954 88.3149 147.954C86.0109 147.954 84.4449 149.79 84.4449 152.094C84.4449 154.398 86.0469 156.252 88.4229 156.252C88.9989 156.252 90.0249 156.126 90.8169 154.992V156H93.0129V148.206H90.8169V149.214ZM88.8729 149.898C90.1149 149.898 91.0329 150.87 91.0329 152.094C91.0329 153.336 90.1149 154.308 88.8729 154.308C87.6309 154.308 86.7129 153.336 86.7129 152.094C86.7129 150.87 87.6309 149.898 88.8729 149.898ZM100.687 150.078V148.206H94.1705V150.078H96.3305V156H98.5265V150.078H100.687ZM105.907 147.954C104.413 147.954 103.423 148.422 102.757 149.052C101.983 149.754 101.443 150.816 101.443 152.112C101.443 153.39 101.983 154.452 102.757 155.154C103.423 155.784 104.413 156.252 105.907 156.252C107.401 156.252 108.391 155.784 109.057 155.154C109.831 154.452 110.371 153.39 110.371 152.112C110.371 150.816 109.831 149.754 109.057 149.052C108.391 148.422 107.401 147.954 105.907 147.954ZM105.907 154.308C104.629 154.308 103.711 153.3 103.711 152.112C103.711 150.888 104.647 149.898 105.907 149.898C107.167 149.898 108.103 150.888 108.103 152.112C108.103 153.3 107.185 154.308 105.907 154.308ZM118.981 148.206H112.681V152.796C112.681 153.102 112.645 153.498 112.411 153.786C112.267 153.984 111.997 154.164 111.511 154.164C111.385 154.164 111.295 154.146 111.169 154.128V156C111.367 156.054 111.583 156.072 111.817 156.072C113.077 156.072 113.779 155.424 113.923 155.244C114.553 154.524 114.661 153.588 114.661 152.94V150.078H116.785V156H118.981V148.206ZM125.137 147.954C123.643 147.954 122.653 148.422 121.987 149.052C121.213 149.754 120.673 150.816 120.673 152.112C120.673 153.39 121.213 154.452 121.987 155.154C122.653 155.784 123.643 156.252 125.137 156.252C126.631 156.252 127.621 155.784 128.287 155.154C129.061 154.452 129.601 153.39 129.601 152.112C129.601 150.816 129.061 149.754 128.287 149.052C127.621 148.422 126.631 147.954 125.137 147.954ZM125.137 154.308C123.859 154.308 122.941 153.3 122.941 152.112C122.941 150.888 123.877 149.898 125.137 149.898C126.397 149.898 127.333 150.888 127.333 152.112C127.333 153.3 126.415 154.308 125.137 154.308ZM131.3 156H133.496V150.078H136.268V148.206H131.3V156ZM137.417 148.206V156H139.613L143.213 151.194V156H145.409V148.206H143.213L139.613 153.012V148.206H137.417ZM146.805 156H149.325L151.233 153.264H151.485V156H153.681V148.206H150.585C149.847 148.206 148.947 148.26 148.173 148.854C147.723 149.214 147.237 149.826 147.237 150.816C147.237 151.626 147.543 152.166 147.849 152.472C148.335 152.958 148.983 153.084 149.109 153.084L146.805 156ZM151.485 151.68H150.531C150.297 151.68 150.027 151.68 149.793 151.482C149.559 151.284 149.505 151.104 149.505 150.834C149.505 150.564 149.595 150.33 149.793 150.15C150.027 149.934 150.261 149.934 150.531 149.934H151.485V151.68Z" fill="#333333"/>
<path d="M126.672 90.7524V104.674H73.5158L71.6869 101.931C71.5946 101.793 71.5304 101.638 71.4981 101.474C71.4658 101.311 71.466 101.143 71.4986 100.98C71.5312 100.817 71.5956 100.662 71.6882 100.524C71.7808 100.386 71.8997 100.267 72.0381 100.175L74.7814 98.3462V93.2837L70.7694 83.2552L69.7189 80.6274L68.2951 77.7798L66.096 73.3833C64.3174 69.8242 63.3913 65.9002 63.3908 61.9215V53.4956L57.1449 51.711C56.3695 51.4897 55.6763 51.0451 55.1517 50.4327C54.6271 49.8203 54.2941 49.0671 54.1944 48.2669L53.8796 45.7483L53.2657 40.8393H62.1251L63.7625 37.5645C64.7752 35.5395 66.3683 33.8622 68.3385 32.7466C70.3087 31.631 72.5667 31.1278 74.8241 31.3012L79.6477 31.673C80.8916 31.7686 82.0975 32.1459 83.1741 32.7763C84.2507 33.4067 85.1698 34.2737 85.8619 35.3117L91.2345 43.3705L94.666 48.9789C98.2538 54.839 102.898 59.9823 108.363 64.1474L116.606 70.4265C119.735 72.811 122.271 75.8859 124.017 79.4115C125.763 82.9371 126.672 86.8182 126.672 90.7524Z" fill="#F3AF3E"/>
<path d="M76.8586 39.994L75.7565 47.1572C75.4733 48.9982 75.7817 50.8816 76.6373 52.5361C77.4929 54.1906 78.8515 55.5309 80.5175 56.3639C81.7391 56.9747 83.0862 57.2927 84.452 57.2927H86.172V40.3561C86.172 39.8417 86.0523 39.3344 85.8222 38.8744C85.5471 38.3239 85.1241 37.8609 84.6007 37.5374C84.0772 37.2138 83.474 37.0424 82.8586 37.0424H80.2986C79.4671 37.0424 78.6632 37.34 78.0322 37.8814C77.4013 38.4228 76.9849 39.1722 76.8586 39.994Z" fill="#C38325"/>
<path d="M112.632 97.6169C112.529 97.8347 112.367 98.0189 112.164 98.1481C111.961 98.2772 111.725 98.3459 111.485 98.3462H101.092C100.156 98.3474 99.2594 98.7196 98.5977 99.3813C97.9361 100.043 97.5638 100.94 97.5627 101.876V104.674H95.0314V101.876C95.0329 100.269 95.6719 98.7281 96.8082 97.5918C97.9445 96.4555 99.4852 95.8165 101.092 95.815H108.787C105.621 91.8653 103.894 86.9552 103.891 81.8931C103.891 81.5574 104.024 81.2355 104.261 80.9981C104.499 80.7608 104.821 80.6274 105.156 80.6274C105.492 80.6274 105.814 80.7608 106.051 80.9981C106.289 81.2355 106.422 81.5574 106.422 81.8931C106.425 86.5029 108.041 90.9664 110.989 94.5098L112.457 96.2706C112.611 96.4555 112.709 96.6802 112.74 96.9185C112.771 97.1568 112.733 97.399 112.632 97.6169Z" fill="#C38325"/>
<path d="M120.344 62.9087C120.344 63.3342 120.331 63.7551 120.304 64.1743C120.277 64.5999 120.237 65.0217 120.184 65.4399C119.91 67.6582 119.266 69.8148 118.279 71.8203C116.993 74.442 115.155 76.7549 112.892 78.6009C110.629 80.4469 107.994 81.7825 105.168 82.5164C105.164 82.5182 105.16 82.5192 105.156 82.5195C102.371 83.2388 99.4645 83.3562 96.6302 82.8641C93.7959 82.372 91.099 81.2817 88.7191 79.6656C86.3392 78.0496 84.331 75.945 82.8282 73.4921C81.3254 71.0391 80.3625 68.2941 80.0037 65.4399C79.9499 65.0223 79.9098 64.6004 79.8835 64.1743C79.8566 63.7551 79.8439 63.3342 79.8439 62.9087C79.8443 58.5407 81.2569 54.2899 83.8709 50.7904C86.485 47.291 90.1605 44.7306 94.3489 43.4911C98.5374 42.2517 103.014 42.3996 107.112 43.913C111.209 45.4263 114.708 48.2238 117.085 51.8882C117.376 52.3359 117.65 52.7958 117.906 53.2678C119.511 56.2274 120.349 59.5419 120.344 62.9087Z" fill="#C0F5F9"/>
<path d="M58.3283 40.8392V41.9182C58.3284 42.6944 58.0691 43.4485 57.5915 44.0605C57.114 44.6724 56.4456 45.1073 55.6926 45.2958L53.8796 45.7483L53.2657 40.8392H58.3283Z" fill="#C38325"/>
<path d="M69.7189 42.1052C71.1168 42.1052 72.2501 40.9719 72.2501 39.574C72.2501 38.176 71.1168 37.0427 69.7189 37.0427C68.3209 37.0427 67.1876 38.176 67.1876 39.574C67.1876 40.9719 68.3209 42.1052 69.7189 42.1052Z" fill="#C38325"/>
<path d="M96.297 89.4868H103.891V104.674H96.297V89.4868Z" fill="#428DC5"/>
<path d="M120.304 64.1742C120.277 64.5998 120.237 65.0216 120.184 65.4398C119.91 67.6581 119.266 69.8147 118.279 71.8202C116.993 74.4419 115.155 76.7548 112.892 78.6008C110.629 80.4468 107.994 81.7824 105.168 82.5163C105.164 82.5181 105.16 82.5191 105.156 82.5194C102.371 83.2387 99.4645 83.3561 96.6302 82.864C93.7959 82.3719 91.099 81.2816 88.7191 79.6655C86.3392 78.0495 84.331 75.9449 82.8282 73.492C81.3254 71.039 80.3625 68.294 80.0037 65.4398C79.9499 65.0222 79.9098 64.6003 79.8835 64.1742H120.304Z" fill="#EEB58E"/>
<path d="M92.5002 67.9712H95.0314V70.5024H92.5002V67.9712Z" fill="#F55648"/>
<path d="M92.5002 74.2993H95.0314V76.8306H92.5002V74.2993Z" fill="#B94137"/>
<path d="M103.891 74.2993H106.422V76.8306H103.891V74.2993Z" fill="#F55648"/>
<path d="M108.953 74.2993H111.485V76.8306H108.953V74.2993Z" fill="#F55648"/>
<path d="M106.422 70.5024H108.953V73.0337H106.422V70.5024Z" fill="#B94137"/>
<path d="M82.0049 99.2416L80.2062 101.039L82.1631 103.972C82.3017 104.18 82.3755 104.424 82.3751 104.674H79.5876L78.1005 102.442C77.7776 101.955 77.6327 101.371 77.6903 100.789C77.748 100.208 78.0046 99.6639 78.4169 99.2495L79.8439 97.8226V91.3204L70.7693 83.2552L69.7189 80.6274L68.295 77.7798C68.4394 77.834 68.5724 77.9144 68.6874 78.0171L81.9496 89.8064C82.0834 89.925 82.1905 90.0707 82.2638 90.2338C82.3372 90.3969 82.3751 90.5736 82.3751 90.7525V98.3462C82.3753 98.6819 82.2421 99.004 82.0049 99.2416Z" fill="#C38325"/>
<path d="M89.9689 88.2212V104.674H87.4376V88.604L85.1184 85.1267C84.9321 84.8473 84.8644 84.5053 84.9303 84.1759C84.9962 83.8466 85.1902 83.5569 85.4696 83.3706C85.749 83.1843 86.091 83.1167 86.4204 83.1826C86.7497 83.2484 87.0394 83.4424 87.2257 83.7219L89.7569 87.5187C89.8948 87.7271 89.9685 87.9713 89.9689 88.2212Z" fill="#C38325"/>
<path d="M120.304 64.1742C120.277 64.5998 120.237 65.0216 120.184 65.4398H80.0037L79.8835 64.1742H120.304Z" fill="#BD9070"/>
<path d="M106.32 48.9868C102.173 54.7919 99.6181 61.581 98.9082 68.6794L98.8403 69.3572C98.8045 69.7151 98.8487 70.0766 98.9697 70.4153C99.0906 70.7541 99.2854 71.0618 99.5397 71.3162C99.7653 71.5417 100.033 71.7207 100.328 71.8427C100.622 71.9648 100.938 72.0276 101.257 72.0276C101.576 72.0276 101.892 71.9648 102.187 71.8427C102.481 71.7207 102.749 71.5417 102.974 71.3162L103.077 71.2138C103.303 70.9883 103.482 70.7206 103.604 70.4259C103.726 70.1312 103.789 69.8154 103.789 69.4964V64.1442C103.789 60.8019 104.199 57.4722 105.009 54.2296L106.32 48.9868Z" fill="#744630"/>
<path d="M117.906 53.2677L117.666 54.2296C116.854 57.472 116.444 60.8018 116.444 64.1442V69.4962C116.444 70.1403 116.188 70.758 115.734 71.2143L115.631 71.3155C115.277 71.6698 114.822 71.9058 114.328 71.9913C113.835 72.0767 113.327 72.0075 112.874 71.793C112.421 71.5785 112.046 71.2293 111.799 70.7932C111.553 70.3571 111.447 69.8554 111.497 69.357L111.564 68.6799C112.157 62.7468 114.041 57.0154 117.085 51.8882C117.376 52.3359 117.65 52.7957 117.906 53.2677Z" fill="#744630"/>
<path d="M91.132 48.9868C86.9856 54.7919 84.4306 61.581 83.7207 68.6794L83.6528 69.3572C83.617 69.7151 83.6612 70.0766 83.7822 70.4153C83.9031 70.7541 84.0978 71.0618 84.3522 71.3162C84.5778 71.5417 84.8455 71.7207 85.1402 71.8427C85.4348 71.9648 85.7507 72.0276 86.0696 72.0276C86.3886 72.0276 86.7044 71.9648 86.9991 71.8427C87.2937 71.7207 87.5615 71.5417 87.787 71.3162L87.8895 71.2138C88.1151 70.9883 88.2941 70.7206 88.4163 70.4259C88.5384 70.1312 88.6013 69.8154 88.6014 69.4964V64.1442C88.6014 60.8019 89.0113 57.4722 89.822 54.2296L91.132 48.9868Z" fill="#744630"/>
<path d="M121.61 62.9086C121.61 51.0448 111.958 41.393 100.094 41.393C88.2303 41.393 78.5783 51.0448 78.5783 62.9086C78.5783 73.0291 85.6025 81.5383 95.0314 83.8212V89.4868H105.156V83.8212C114.585 81.5383 121.61 73.0291 121.61 62.9086ZM100.094 81.893C96.3392 81.893 92.6687 80.7796 89.5468 78.6936C86.4248 76.6076 83.9915 73.6426 82.5546 70.1737C81.1177 66.7047 80.7418 62.8876 81.4743 59.205C82.2068 55.5224 84.0149 52.1397 86.6699 49.4847C89.3249 46.8296 92.7076 45.0216 96.3903 44.289C100.073 43.5565 103.89 43.9325 107.359 45.3694C110.828 46.8062 113.793 49.2395 115.879 52.3615C117.965 55.4835 119.078 59.1539 119.078 62.9086C119.073 67.9419 117.071 72.7673 113.512 76.3264C109.953 79.8854 105.127 81.8873 100.094 81.893Z" fill="#428DC5"/>
<path d="M96.297 89.4868H103.891V92.0181H96.297V89.4868Z" fill="#3775A4"/>
<path d="M69.7189 42.1052C71.1168 42.1052 72.2501 40.9719 72.2501 39.574C72.2501 38.176 71.1168 37.0427 69.7189 37.0427C68.3209 37.0427 67.1876 38.176 67.1876 39.574C67.1876 40.9719 68.3209 42.1052 69.7189 42.1052Z" fill="black"/>
<path d="M92.5002 67.9712H95.0314V70.5024H92.5002V67.9712Z" fill="black"/>
<path d="M92.5002 74.2993H95.0314V76.8306H92.5002V74.2993Z" fill="black"/>
<path d="M103.891 74.2993H106.422V76.8306H103.891V74.2993Z" fill="black"/>
<path d="M108.953 74.2993H111.485V76.8306H108.953V74.2993Z" fill="black"/>
<path d="M106.422 70.5024H108.953V73.0337H106.422V70.5024Z" fill="black"/>
<path d="M52.9386 48.4238C53.068 49.4707 53.503 50.4563 54.1892 51.2574C54.8755 52.0585 55.7825 52.6397 56.7972 52.9283L62.1251 54.4506V61.9209C62.1301 66.0956 63.1019 70.2123 64.9644 73.9485L68.5632 81.1467L73.5158 93.5274V97.6689L71.3356 99.1223C71.059 99.3067 70.8214 99.5437 70.6364 99.8199C70.4515 100.096 70.3227 100.406 70.2575 100.732C70.1923 101.058 70.192 101.394 70.2565 101.72C70.321 102.046 70.4491 102.356 70.6335 102.632L72.4628 105.376C72.5783 105.55 72.7349 105.692 72.9186 105.79C73.1023 105.888 73.3074 105.94 73.5158 105.94H126.672C127.008 105.94 127.33 105.807 127.567 105.569C127.804 105.332 127.938 105.01 127.938 104.674V90.7524C127.935 87.1665 127.214 83.6174 125.818 80.3145C124.422 77.0116 122.379 74.0216 119.808 71.521C120.775 69.318 121.363 66.9674 121.546 64.5686C121.615 64.3613 121.628 64.1398 121.585 63.9258C121.601 63.5887 121.61 63.2497 121.61 62.9086C121.614 59.5025 120.804 56.1447 119.249 53.1147L120.204 49.2936C120.275 49.0078 120.245 48.706 120.117 48.4403C119.99 48.1745 119.774 47.9616 119.506 47.838C119.239 47.7145 118.937 47.6882 118.652 47.7636C118.367 47.839 118.118 48.0114 117.946 48.2511C117.624 48.7028 117.311 49.1605 117.008 49.6241C114.17 46.0059 110.247 43.3929 105.815 42.1687C101.383 40.9446 96.6752 41.1738 92.3829 42.8228L92.3139 42.7102C92.3056 42.6962 92.2967 42.6823 92.2875 42.6687L86.9156 34.61C86.1203 33.4091 85.0606 32.4064 83.8178 31.6786C82.5749 30.9508 81.1819 30.5172 79.7455 30.4113L74.9216 30.0397C72.4122 29.8402 69.9006 30.3964 67.7101 31.6367C65.5196 32.8769 63.7504 34.7445 62.6304 36.9989L61.343 39.5736H53.2657C53.0862 39.5736 52.9087 39.6118 52.745 39.6857C52.5813 39.7595 52.4352 39.8674 52.3164 40.0021C52.1977 40.1367 52.1089 40.2951 52.0561 40.4668C52.0032 40.6384 51.9875 40.8193 52.0099 40.9974L52.9386 48.4238ZM79.8439 97.822L78.4169 99.2488C78.0043 99.6633 77.7475 100.208 77.6898 100.789C77.6322 101.371 77.7772 101.955 78.1005 102.443L78.7447 103.409H74.193L72.7396 101.228L75.4835 99.3991C75.6568 99.2836 75.799 99.127 75.8973 98.9433C75.9956 98.7596 76.047 98.5545 76.047 98.3461V93.2836C76.047 93.1226 76.0163 92.9631 75.9565 92.8136L72.8852 85.1351L79.8439 91.3208V97.822ZM102.625 103.409H97.5627V90.7524H102.625V103.409ZM103.891 88.2211H96.297V84.0887C98.8085 84.5361 101.379 84.5361 103.891 84.0887V88.2211ZM118.279 57.4571C118.81 59.2255 119.079 61.0622 119.078 62.9086H117.73C117.787 61.0809 117.971 59.2594 118.279 57.4571ZM117.71 69.4963V65.4398H118.909C118.694 67.0427 118.274 68.6113 117.659 70.1068C117.693 69.9051 117.71 69.7009 117.71 69.4963H117.71ZM118.591 73.8852C122.959 78.4146 125.402 84.4602 125.406 90.7524V103.409H105.156V98.3461H111.485C111.725 98.3462 111.961 98.2776 112.164 98.1485C112.367 98.0194 112.529 97.8352 112.631 97.6173C112.733 97.3995 112.771 97.157 112.74 96.9184C112.709 96.6799 112.611 96.455 112.457 96.2702L110.99 94.5102C108.374 91.3838 106.8 87.5187 106.488 83.4545C111.562 81.8622 115.872 78.4552 118.592 73.8852H118.591ZM105.156 95.8149V90.7524C105.336 90.7523 105.513 90.714 105.676 90.6401C106.473 92.4985 107.519 94.2396 108.787 95.8149H105.156ZM116.628 72.1087C116.686 72.051 116.741 71.9909 116.794 71.93C115.189 74.903 112.82 77.3937 109.931 79.1448C107.041 80.896 103.737 81.844 100.359 81.8911C96.9808 81.9382 93.6513 81.0826 90.7144 79.4126C87.7775 77.7427 85.3396 75.3189 83.6526 72.3918C84.3585 73.0032 85.2698 73.3244 86.203 73.2909C87.1363 73.2573 88.0221 72.8713 88.6822 72.2108L88.7843 72.1087C89.1284 71.7665 89.4013 71.3594 89.5871 70.911C89.7729 70.4625 89.8678 69.9817 89.8665 69.4963V65.4398H98.0798C97.8982 66.4704 97.7546 67.5082 97.6489 68.5533L97.581 69.2312C97.5051 69.9895 97.6656 70.7528 98.0405 71.4164C98.4154 72.0799 98.9864 72.6113 99.6751 72.9376C100.364 73.264 101.137 73.3693 101.888 73.2392C102.639 73.1091 103.331 72.75 103.87 72.2109L103.972 72.1089C104.316 71.7667 104.589 71.3595 104.775 70.9111C104.96 70.4627 105.055 69.9819 105.054 69.4965V65.4398H110.736C110.554 66.4704 110.411 67.5082 110.305 68.5533L110.237 69.2312C110.161 69.9895 110.322 70.7528 110.697 71.4164C111.072 72.0799 111.643 72.6113 112.331 72.9376C113.02 73.264 113.793 73.3693 114.544 73.2392C115.295 73.1091 115.987 72.75 116.526 72.2109L116.628 72.1087ZM84.9121 69.4826L84.98 68.8047C85.3736 64.8812 86.3504 61.0384 87.8781 57.4031C87.517 59.6321 87.3355 61.8866 87.3353 64.1446V69.4968C87.3357 69.6497 87.3057 69.8011 87.2472 69.9424C87.1886 70.0836 87.1025 70.2118 86.994 70.3195L86.892 70.4217C86.7223 70.5913 86.5044 70.7043 86.268 70.7452C86.0316 70.7861 85.7883 70.7529 85.5715 70.6502C85.3547 70.5475 85.175 70.3802 85.0569 70.1713C84.9389 69.9625 84.8883 69.7223 84.9121 69.4835V69.4826ZM100.1 69.4826L100.167 68.8047C100.561 64.8812 101.538 61.0384 103.066 57.4031C102.704 59.6321 102.523 61.8866 102.523 64.1446V69.4968C102.523 69.6497 102.493 69.8011 102.435 69.9424C102.376 70.0836 102.29 70.2118 102.182 70.3195L102.08 70.4217C101.91 70.5913 101.692 70.7043 101.455 70.7452C101.219 70.7861 100.976 70.7529 100.759 70.6502C100.542 70.5475 100.362 70.3802 100.244 70.1713C100.126 69.9625 100.076 69.7223 100.1 69.4835V69.4826ZM115.179 64.1435V69.4957C115.179 69.6486 115.15 69.8 115.091 69.9413C115.032 70.0825 114.946 70.2107 114.838 70.3184L114.736 70.4206C114.566 70.5902 114.348 70.7032 114.112 70.7441C113.875 70.785 113.632 70.7518 113.415 70.6491C113.198 70.5463 113.019 70.3791 112.901 70.1702C112.783 69.9614 112.732 69.7211 112.756 69.4824L112.824 68.8045C113.217 64.8811 114.194 61.0383 115.722 57.4031C115.361 59.632 115.179 61.8862 115.179 64.1442V64.1435ZM90.0553 43.8834C89.1447 44.3659 88.27 44.913 87.4376 45.5206V40.3561C87.4376 40.2116 87.4289 40.0672 87.415 39.9232L90.0553 43.8834ZM100.094 43.9242C103.13 43.9247 106.122 44.6538 108.818 46.0504C111.514 47.4469 113.835 49.47 115.587 51.9497C113.641 55.3828 112.186 59.0716 111.263 62.9086H105.074C105.162 60.0845 105.552 57.2779 106.237 54.5366L107.547 49.2936C107.619 49.0078 107.588 48.706 107.461 48.4403C107.334 48.1745 107.118 47.9616 106.85 47.838C106.583 47.7145 106.28 47.6882 105.996 47.7636C105.711 47.839 105.461 48.0114 105.29 48.2511C102.142 52.6626 99.8728 57.639 98.6068 62.9086H89.886C89.9744 60.0845 90.3643 57.2779 91.0491 54.5366L92.3598 49.2936C92.4312 49.0078 92.4006 48.706 92.2733 48.4403C92.146 48.1745 91.93 47.9616 91.6625 47.838C91.395 47.7145 91.0928 47.6882 90.808 47.7636C90.5232 47.839 90.2736 48.0114 90.1023 48.2511C86.9543 52.6626 84.6853 57.639 83.4193 62.9086H81.1095C81.1152 57.8754 83.1172 53.0499 86.6762 49.4909C90.2352 45.9319 95.0607 43.9299 100.094 43.9242ZM82.3785 69.7317C81.8442 68.3494 81.4751 66.9088 81.2786 65.4398H82.8923C82.7107 66.4704 82.567 67.5082 82.4614 68.5533L82.3935 69.2312C82.3773 69.3975 82.3723 69.5647 82.3785 69.7317ZM80.2017 54.7137C79.027 53.9145 78.1031 52.7984 77.5377 51.4949C76.9722 50.1914 76.7884 48.7542 77.0075 47.3504L78.1095 40.1873C78.1874 39.6631 78.4516 39.1846 78.8536 38.8395C79.2557 38.4943 79.7687 38.3056 80.2986 38.308H82.8586C83.2392 38.3067 83.6125 38.4121 83.9363 38.6122C84.26 38.8123 84.5212 39.0991 84.6903 39.4401C84.8321 39.7246 84.906 40.0382 84.9064 40.3561V47.6831C82.8899 49.6935 81.291 52.0829 80.2017 54.7137ZM59.586 42.1049H62.1251C62.3602 42.1049 62.5905 42.0394 62.7905 41.9158C62.9904 41.7923 63.152 41.6155 63.2571 41.4053L64.8945 38.1305C65.7904 36.3271 67.2056 34.8331 68.9579 33.8409C70.7102 32.8487 72.7194 32.4037 74.7268 32.5632L79.5509 32.9349C80.6043 33.0126 81.6259 33.3305 82.5373 33.8642C83.4487 34.398 84.2258 35.1334 84.8089 36.014L85.0035 36.3059C84.3424 35.9572 83.6061 35.7755 82.8586 35.7767H80.2986C79.1634 35.7715 78.0644 36.1754 77.2028 36.9146C76.3413 37.6538 75.775 38.6787 75.6077 39.8014L74.5056 46.9649C74.1948 48.9565 74.4914 50.9956 75.3566 52.8162C76.2218 54.6368 77.6156 56.1545 79.3562 57.1712C78.839 59.0398 78.5773 60.9698 78.5783 62.9086C78.5783 63.2497 78.5871 63.5889 78.6029 63.9258C78.5599 64.1398 78.5733 64.3613 78.6417 64.5686C78.9814 68.8715 80.6044 72.9734 83.3007 76.3438C85.997 79.7142 89.6426 82.198 93.7659 83.4739V89.4867C93.7659 89.8224 93.8993 90.1443 94.1366 90.3817C94.374 90.619 94.6959 90.7524 95.0316 90.7524V103.409H89.9689V88.2211C89.9689 87.9712 89.8949 87.7269 89.7563 87.519L87.225 83.7221C87.1332 83.5829 87.0149 83.4632 86.8766 83.3698C86.7384 83.2765 86.5832 83.2114 86.4197 83.1782C86.2563 83.1451 86.0879 83.1446 85.9242 83.1768C85.7606 83.2089 85.6049 83.2731 85.4662 83.3656C85.3274 83.4581 85.2083 83.5772 85.1157 83.7159C85.0231 83.8546 84.9588 84.0102 84.9266 84.1738C84.8943 84.3374 84.8947 84.5058 84.9277 84.6693C84.9608 84.8328 85.0258 84.9881 85.119 85.1263L87.4376 88.6043V103.409H81.7868L80.2078 101.039L82.0053 99.2411C82.2423 99.0036 82.3754 98.6817 82.3751 98.3461V90.7524C82.3751 90.5736 82.3372 90.3969 82.264 90.2339C82.1908 90.0709 82.0838 89.9252 81.9502 89.8065L70.7418 79.8433L67.2284 72.8166C65.5413 69.432 64.6609 65.7027 64.6564 61.9209V53.4955C64.6564 53.2205 64.5669 52.953 64.4013 52.7335C64.2357 52.5139 64.0032 52.3542 63.7388 52.2786L57.4921 50.4942C56.9552 50.3415 56.4751 50.0339 56.112 49.6098C55.7489 49.1858 55.5187 48.6642 55.4504 48.1101L55.2749 46.7049L56.0001 46.524C56.9959 46.2753 57.8839 45.7099 58.5306 44.9129C59.1773 44.1159 59.5477 43.1305 59.586 42.1049ZM57.0547 42.1049C57.0165 42.5655 56.835 43.0025 56.5356 43.3547C56.2363 43.7068 55.8341 43.9563 55.3857 44.0682L54.9585 44.175L54.6994 42.1049H57.0547Z" fill="black"/>
</svg>
