<svg width="193" height="201" viewBox="0 0 193 201" fill="none" xmlns="http://www.w3.org/2000/svg">
<rect x="0.5" y="0.5" width="192" height="200" rx="4.5" fill="white" stroke="#F3F3F3"/>
<path d="M41.1323 132.994V139.87C41.1323 141.004 41.1323 142.066 40.5383 142.66C40.3403 142.858 40.0163 143.092 39.4583 143.092C39.1883 143.092 38.9903 143.038 38.7923 142.984V145C39.1163 145.072 39.4403 145.108 39.7823 145.108C40.9523 145.108 41.6903 144.73 42.1763 144.316C43.5083 143.218 43.4723 141.58 43.4723 140.338V135.01H46.9643V145H49.3043V132.994H41.1323ZM57.6909 138.214C56.9709 137.062 55.7649 136.954 55.1889 136.954C52.8849 136.954 51.3189 138.79 51.3189 141.094C51.3189 143.398 52.9209 145.252 55.2969 145.252C55.8729 145.252 56.8989 145.126 57.6909 143.992V145H59.8869V137.206H57.6909V138.214ZM55.7469 138.898C56.9889 138.898 57.9069 139.87 57.9069 141.094C57.9069 142.336 56.9889 143.308 55.7469 143.308C54.5049 143.308 53.5869 142.336 53.5869 141.094C53.5869 139.87 54.5049 138.898 55.7469 138.898ZM68.2085 132.04C68.0105 132.598 67.5785 132.886 66.4265 133.12C65.3825 133.354 63.9245 133.624 62.9165 135.028C62.3405 135.838 61.7285 137.278 61.7285 140.284C61.7285 141.382 61.8365 143.074 63.1325 144.226C64.1585 145.144 65.4005 145.252 66.2465 145.252C67.4885 145.252 68.4785 144.946 69.3425 144.154C69.9725 143.578 70.6565 142.606 70.6565 141.076C70.6565 139.42 69.8645 138.466 69.4505 138.052C68.7125 137.314 67.7405 136.954 66.5345 136.954C65.5445 136.954 64.3925 137.278 63.7985 138.016H63.7625C63.8165 137.17 64.1585 136.45 64.6445 136.018C65.2745 135.424 66.1745 135.28 66.8585 135.082L67.6685 134.848C68.1545 134.704 69.8465 134.182 70.2245 132.04H68.2085ZM66.1925 143.308C64.8965 143.308 63.9965 142.336 63.9965 141.112C63.9965 139.87 64.8785 138.898 66.1925 138.898C67.5065 138.898 68.3885 139.87 68.3885 141.112C68.3885 142.336 67.4885 143.308 66.1925 143.308ZM76.4196 136.954C74.9256 136.954 73.9356 137.422 73.2696 138.052C72.4956 138.754 71.9556 139.816 71.9556 141.112C71.9556 142.39 72.4956 143.452 73.2696 144.154C73.9356 144.784 74.9256 145.252 76.4196 145.252C77.9136 145.252 78.9036 144.784 79.5696 144.154C80.3436 143.452 80.8836 142.39 80.8836 141.112C80.8836 139.816 80.3436 138.754 79.5696 138.052C78.9036 137.422 77.9136 136.954 76.4196 136.954ZM76.4196 143.308C75.1416 143.308 74.2236 142.3 74.2236 141.112C74.2236 139.888 75.1596 138.898 76.4196 138.898C77.6796 138.898 78.6156 139.888 78.6156 141.112C78.6156 142.3 77.6976 143.308 76.4196 143.308ZM84.7781 143.992C85.6421 145.144 86.7401 145.252 87.2801 145.252C88.4321 145.252 89.3321 144.802 89.9261 144.244C90.3761 143.794 91.1501 142.876 91.1501 141.094C91.1501 139.528 90.5561 138.574 89.9801 137.998C89.0981 137.116 87.9821 136.954 87.3161 136.954C85.8761 136.954 85.1201 137.728 84.7781 138.214V137.206H82.5821V149.122H84.7781V143.992ZM86.7221 138.898C87.2441 138.898 87.8021 139.096 88.2161 139.456C88.6481 139.87 88.8821 140.518 88.8821 141.094C88.8821 141.67 88.6841 142.318 88.1981 142.75C87.9101 143.02 87.4421 143.308 86.7221 143.308C86.0201 143.308 85.5701 143.056 85.2821 142.786C84.8501 142.408 84.5621 141.814 84.5621 141.094C84.5621 140.392 84.8141 139.834 85.3001 139.42C85.6781 139.078 86.1641 138.898 86.7221 138.898ZM98.8237 138.214C98.1037 137.062 96.8977 136.954 96.3217 136.954C94.0177 136.954 92.4517 138.79 92.4517 141.094C92.4517 143.398 94.0537 145.252 96.4297 145.252C97.0057 145.252 98.0317 145.126 98.8237 143.992V145H101.02V137.206H98.8237V138.214ZM96.8797 138.898C98.1217 138.898 99.0397 139.87 99.0397 141.094C99.0397 142.336 98.1217 143.308 96.8797 143.308C95.6377 143.308 94.7197 142.336 94.7197 141.094C94.7197 139.87 95.6377 138.898 96.8797 138.898ZM108.693 139.078V137.206H102.177V139.078H104.337V145H106.533V139.078H108.693ZM113.914 136.954C112.42 136.954 111.43 137.422 110.764 138.052C109.99 138.754 109.45 139.816 109.45 141.112C109.45 142.39 109.99 143.452 110.764 144.154C111.43 144.784 112.42 145.252 113.914 145.252C115.408 145.252 116.398 144.784 117.064 144.154C117.838 143.452 118.378 142.39 118.378 141.112C118.378 139.816 117.838 138.754 117.064 138.052C116.398 137.422 115.408 136.954 113.914 136.954ZM113.914 143.308C112.636 143.308 111.718 142.3 111.718 141.112C111.718 139.888 112.654 138.898 113.914 138.898C115.174 138.898 116.11 139.888 116.11 141.112C116.11 142.3 115.192 143.308 113.914 143.308ZM122.272 143.992C123.136 145.144 124.234 145.252 124.774 145.252C125.926 145.252 126.826 144.802 127.42 144.244C127.87 143.794 128.644 142.876 128.644 141.094C128.644 139.528 128.05 138.574 127.474 137.998C126.592 137.116 125.476 136.954 124.81 136.954C123.37 136.954 122.614 137.728 122.272 138.214V137.206H120.076V149.122H122.272V143.992ZM124.216 138.898C124.738 138.898 125.296 139.096 125.71 139.456C126.142 139.87 126.376 140.518 126.376 141.094C126.376 141.67 126.178 142.318 125.692 142.75C125.404 143.02 124.936 143.308 124.216 143.308C123.514 143.308 123.064 143.056 122.776 142.786C122.344 142.408 122.056 141.814 122.056 141.094C122.056 140.392 122.308 139.834 122.794 139.42C123.172 139.078 123.658 138.898 124.216 138.898ZM130.342 145H132.538V141.832H135.598V145H137.794V137.206H135.598V139.96H132.538V137.206H130.342V145ZM145.863 138.214C145.143 137.062 143.937 136.954 143.361 136.954C141.057 136.954 139.491 138.79 139.491 141.094C139.491 143.398 141.093 145.252 143.469 145.252C144.045 145.252 145.071 145.126 145.863 143.992V145H148.059V137.206H145.863V138.214ZM143.919 138.898C145.161 138.898 146.079 139.87 146.079 141.094C146.079 142.336 145.161 143.308 143.919 143.308C142.677 143.308 141.759 142.336 141.759 141.094C141.759 139.87 142.677 138.898 143.919 138.898ZM149.468 145H151.988L153.896 142.264H154.148V145H156.344V137.206H153.248C152.51 137.206 151.61 137.26 150.836 137.854C150.386 138.214 149.9 138.826 149.9 139.816C149.9 140.626 150.206 141.166 150.512 141.472C150.998 141.958 151.646 142.084 151.772 142.084L149.468 145ZM154.148 140.68H153.194C152.96 140.68 152.69 140.68 152.456 140.482C152.222 140.284 152.168 140.104 152.168 139.834C152.168 139.564 152.258 139.33 152.456 139.15C152.69 138.934 152.924 138.934 153.194 138.934H154.148V140.68ZM49.8685 159.206V162.14C49.8685 163.022 49.7605 163.688 49.5625 164.138C49.3285 164.624 48.8785 165.074 48.1765 165.128V169.268H50.1565V167H55.5205V169.268H57.5005V165.128H56.3485V159.206H49.8685ZM54.1525 165.128H50.9845C51.6325 164.57 51.8485 163.814 51.8485 162.806V161.078H54.1525V165.128ZM58.6934 159.206V167H60.8894L64.4894 162.194V167H66.6854V159.206H64.4894L60.8894 164.012V159.206H58.6934ZM74.7417 160.214C74.0217 159.062 72.8157 158.954 72.2397 158.954C69.9357 158.954 68.3697 160.79 68.3697 163.094C68.3697 165.398 69.9717 167.252 72.3477 167.252C72.9237 167.252 73.9497 167.126 74.7417 165.992V167H76.9377V159.206H74.7417V160.214ZM72.7977 160.898C74.0397 160.898 74.9577 161.87 74.9577 163.094C74.9577 164.336 74.0397 165.308 72.7977 165.308C71.5557 165.308 70.6377 164.336 70.6377 163.094C70.6377 161.87 71.5557 160.898 72.7977 160.898ZM79.0313 167H81.2273V161.078H83.9993V159.206H79.0313V167ZM85.1485 167H87.3445V163.832H90.4045V167H92.6005V159.206H90.4045V161.96H87.3445V159.206H85.1485V167ZM98.7614 158.954C97.2674 158.954 96.2774 159.422 95.6114 160.052C94.8374 160.754 94.2974 161.816 94.2974 163.112C94.2974 164.39 94.8374 165.452 95.6114 166.154C96.2774 166.784 97.2674 167.252 98.7614 167.252C100.255 167.252 101.245 166.784 101.911 166.154C102.685 165.452 103.225 164.39 103.225 163.112C103.225 161.816 102.685 160.754 101.911 160.052C101.245 159.422 100.255 158.954 98.7614 158.954ZM98.7614 165.308C97.4834 165.308 96.5654 164.3 96.5654 163.112C96.5654 161.888 97.5014 160.898 98.7614 160.898C100.021 160.898 100.957 161.888 100.957 163.112C100.957 164.3 100.039 165.308 98.7614 165.308ZM110.792 159.422C110.162 159.116 109.496 158.954 108.686 158.954C107.912 158.954 106.832 159.116 105.878 159.962C105.086 160.664 104.528 161.762 104.528 163.13C104.528 164.588 105.176 165.56 105.77 166.118C106.472 166.784 107.552 167.252 108.776 167.252C109.694 167.252 110.36 166.982 110.792 166.766V164.624C110.198 165.182 109.55 165.308 109.064 165.308C107.75 165.308 106.796 164.39 106.796 163.094C106.796 161.942 107.534 160.898 108.992 160.898C109.766 160.898 110.306 161.15 110.792 161.582V159.422ZM118.449 161.078V159.206H111.933V161.078H114.093V167H116.289V161.078H118.449ZM119.602 159.206V167H121.798L125.398 162.194V167H127.594V159.206H125.398L121.798 164.012V159.206H119.602ZM129.674 159.206V167H131.87V164.102L132.194 163.778L134.894 167H137.702L133.994 162.68L137.522 159.206H134.786L131.87 162.23V159.206H129.674ZM144.65 160.214C143.93 159.062 142.724 158.954 142.148 158.954C139.844 158.954 138.278 160.79 138.278 163.094C138.278 165.398 139.88 167.252 142.256 167.252C142.832 167.252 143.858 167.126 144.65 165.992V167H146.846V159.206H144.65V160.214ZM142.706 160.898C143.948 160.898 144.866 161.87 144.866 163.094C144.866 164.336 143.948 165.308 142.706 165.308C141.464 165.308 140.546 164.336 140.546 163.094C140.546 161.87 141.464 160.898 142.706 160.898Z" fill="#333333"/>
<path d="M96.6124 35.7129H83.2061C81.9439 35.7129 80.9209 34.6899 80.9209 33.4277C80.9209 32.1655 81.9439 31.1426 83.2061 31.1426H96.6124C97.8745 31.1426 98.8975 32.1655 98.8975 33.4277C98.8975 34.6899 97.8745 35.7129 96.6124 35.7129Z" fill="#716680"/>
<path d="M84.5772 81.6445H95.2413V86.2148H84.5772V81.6445Z" fill="#716680"/>
<path d="M83.8155 35.7129H96.003V42.0352H83.8155V35.7129Z" fill="#D6CFC4"/>
<path d="M91.4327 35.7129H96.003V42.0352H91.4327V35.7129Z" fill="#C4BEB4"/>
<path d="M125.861 60.6223V93.2227H116.719V60.927C116.719 57.8974 114.263 55.442 111.234 55.442H102.096V46.3008H111.538C119.448 46.3008 125.861 52.7129 125.861 60.6223Z" fill="#716680"/>
<path d="M111.538 46.3008H106.968C114.878 46.3008 121.291 52.7129 121.291 60.6223V93.2227H125.861V60.6223C125.861 52.7129 119.448 46.3008 111.538 46.3008Z" fill="#635870"/>
<path d="M112.834 106.857H79.166C74.1601 106.857 70.1016 102.799 70.1016 97.793H121.898C121.898 102.799 117.84 106.857 112.834 106.857Z" fill="#716680"/>
<path d="M117.328 97.793C117.328 102.799 113.27 106.857 108.264 106.857H112.834C117.84 106.857 121.898 102.799 121.898 97.793H117.328Z" fill="#635870"/>
<path d="M99.0499 81.6445H80.7686C79.0857 81.6445 77.7217 80.2806 77.7217 78.5977V45.082C77.7217 43.3991 79.0857 42.0352 80.7686 42.0352H99.0499C100.733 42.0352 102.097 43.3991 102.097 45.082V78.5977C102.097 80.2806 100.733 81.6445 99.0499 81.6445Z" fill="#E8E1D5"/>
<path d="M99.0499 42.0352H94.4783C96.1607 42.0352 97.5252 43.3991 97.5252 45.082V78.5977C97.5252 80.2806 96.1607 81.6445 94.4783 81.6445H99.0499C100.733 81.6445 102.097 80.2806 102.097 78.5977V45.082C102.097 43.3991 100.733 42.0352 99.0499 42.0352Z" fill="#D6CFC4"/>
<path d="M108.189 50.8003C108.189 54.1655 105.461 56.894 102.096 56.894C98.7297 56.894 96.0018 54.1655 96.0018 50.8003C96.0018 47.435 98.7297 44.7065 102.096 44.7065C105.461 44.7065 108.189 47.435 108.189 50.8003Z" fill="#FFBD54"/>
<path d="M104.381 50.8003C104.381 52.0625 103.357 53.0854 102.096 53.0854C100.833 53.0854 99.8104 52.0625 99.8104 50.8003C99.8104 49.5381 100.833 48.5151 102.096 48.5151C103.357 48.5151 104.381 49.5381 104.381 50.8003Z" fill="#FF573D"/>
<path d="M131.572 97.793H60.4277C59.1655 97.793 58.1426 96.77 58.1426 95.5078C58.1426 94.2456 59.1655 93.2227 60.4277 93.2227H131.572C132.834 93.2227 133.857 94.2456 133.857 95.5078C133.857 96.77 132.834 97.793 131.572 97.793Z" fill="#E8E1D5"/>
<path d="M131.572 93.2227H127.002C128.264 93.2227 129.287 94.2456 129.287 95.5078C129.287 96.77 128.264 97.793 127.002 97.793H131.572C132.834 97.793 133.857 96.77 133.857 95.5078C133.857 94.2456 132.834 93.2227 131.572 93.2227Z" fill="#D6CFC4"/>
<path d="M102.096 54.228C103.986 54.228 105.523 52.6903 105.523 50.8003C105.523 48.9103 103.985 47.3726 102.096 47.3726C100.206 47.3726 98.6678 48.9103 98.6678 50.8003C98.6678 52.6903 100.205 54.228 102.096 54.228ZM102.096 49.6577C102.725 49.6577 103.238 50.1701 103.238 50.8003C103.238 51.4305 102.725 51.9429 102.096 51.9429C101.465 51.9429 100.953 51.4305 100.953 50.8003C100.953 50.1701 101.465 49.6577 102.096 49.6577Z" fill="black"/>
<path d="M131.572 92.0801H127.004V91.4963C127.004 90.8649 126.492 90.3537 125.861 90.3537C125.23 90.3537 124.719 90.8649 124.719 91.4963V92.0801H117.861V60.9276C117.861 57.2725 114.888 54.2988 111.234 54.2988H108.427C109.003 53.261 109.331 52.0684 109.331 50.8003C109.331 49.5893 109.031 48.4473 108.503 47.4434H111.539C118.806 47.4434 124.719 53.3556 124.719 60.6229V86.6463C124.719 87.2777 125.23 87.7889 125.861 87.7889C126.492 87.7889 127.004 87.2777 127.004 86.6463V60.6229C127.004 52.0952 120.066 45.1582 111.539 45.1582H106.619C105.595 44.3358 104.344 43.7865 102.976 43.6193C102.379 42.0137 100.83 40.8926 99.0499 40.8926H97.1456V36.8138C98.7832 36.5567 100.04 35.1362 100.04 33.4277C100.04 31.5377 98.5024 30 96.6124 30H83.2061C81.3161 30 79.7784 31.5377 79.7784 33.4277C79.7784 35.1362 81.0352 36.5567 82.6729 36.8138V40.8926H80.7686C78.4585 40.8926 76.5791 42.7719 76.5791 45.082V49.4875C76.5791 50.1183 77.0909 50.6301 77.7217 50.6301C78.3525 50.6301 78.8643 50.1183 78.8643 49.4875V45.082C78.8643 44.0317 79.7189 43.1777 80.7686 43.1777H99.0499C99.5848 43.1777 100.073 43.4003 100.421 43.7615C97.236 44.5191 94.8592 47.3862 94.8592 50.8003C94.8592 54.4024 97.5044 57.3969 100.954 57.9456V78.5977C100.954 79.648 100.1 80.502 99.0499 80.502H80.7686C79.7189 80.502 78.8643 79.648 78.8643 78.5977V54.356C78.8643 53.7246 78.3525 53.2134 77.7217 53.2134C77.0909 53.2134 76.5791 53.7246 76.5791 54.356V78.5977C76.5791 80.9078 78.4585 82.7871 80.7686 82.7871H83.4346V86.2148C83.4346 86.8462 83.9464 87.3574 84.5772 87.3574H95.2413C95.8721 87.3574 96.3838 86.8462 96.3838 86.2148V82.7871H99.0499C101.36 82.7871 103.239 80.9078 103.239 78.5977V57.9456C104.426 57.7557 105.518 57.2779 106.439 56.584H111.234C113.628 56.584 115.576 58.5323 115.576 60.9276V92.0801H60.4277C58.5377 92.0801 57 93.6178 57 95.5078C57 97.3978 58.5377 98.9355 60.4277 98.9355H69.0244C69.5945 104.028 73.9244 108 79.166 108H112.834C118.076 108 122.405 104.028 122.976 98.9355H131.572C133.462 98.9355 135 97.3978 135 95.5078C135 93.6178 133.462 92.0801 131.572 92.0801ZM82.0635 33.4277C82.0635 32.7975 82.5759 32.2852 83.2061 32.2852H96.6124C97.2426 32.2852 97.7549 32.7975 97.7549 33.4277C97.7549 34.0579 97.2426 34.5703 96.6124 34.5703H83.2061C82.5759 34.5703 82.0635 34.0579 82.0635 33.4277ZM84.9581 40.8926V36.8555H94.8604V40.8926H84.9581ZM94.0987 85.0723H85.7198V82.7871H94.0987V85.0723ZM97.1444 50.8003C97.1444 48.07 99.3652 45.8491 102.096 45.8491C104.825 45.8491 107.047 48.07 107.047 50.8003C107.047 53.527 104.831 55.7449 102.106 55.7509C102.103 55.7509 102.1 55.7509 102.097 55.7509C102.093 55.7509 102.09 55.7509 102.087 55.7509C99.3605 55.7467 97.1444 53.5276 97.1444 50.8003ZM131.572 96.6504H77.7188C77.088 96.6504 76.5762 97.1616 76.5762 97.793C76.5762 98.4244 77.088 98.9355 77.7188 98.9355H120.673C120.117 102.764 116.814 105.715 112.834 105.715H79.166C75.186 105.715 71.8833 102.764 71.3275 98.9355H72.8687C73.5001 98.9355 74.0113 98.4244 74.0113 97.793C74.0113 97.1616 73.5001 96.6504 72.8687 96.6504H60.4277C59.7975 96.6504 59.2852 96.138 59.2852 95.5078C59.2852 94.8776 59.7975 94.3652 60.4277 94.3652H131.572C132.202 94.3652 132.715 94.8776 132.715 95.5078C132.715 96.138 132.202 96.6504 131.572 96.6504Z" fill="black"/>
<path d="M81.6827 78.3691H98.1358C98.7666 78.3691 99.2784 77.858 99.2784 77.2266C99.2784 76.5952 98.7666 76.084 98.1358 76.084H81.6827C81.0519 76.084 80.5401 76.5952 80.5401 77.2266C80.5401 77.858 81.0519 78.3691 81.6827 78.3691Z" fill="black"/>
<path d="M81.6827 74.1035H98.1358C98.7666 74.1035 99.2784 73.5923 99.2784 72.9609C99.2784 72.3295 98.7666 71.8184 98.1358 71.8184H81.6827C81.0519 71.8184 80.5401 72.3295 80.5401 72.9609C80.5401 73.5923 81.0519 74.1035 81.6827 74.1035Z" fill="black"/>
</svg>
