<svg width="193" height="201" viewBox="0 0 193 201" fill="none" xmlns="http://www.w3.org/2000/svg">
<rect x="0.5" y="0.5" width="192" height="200" rx="4.5" fill="white" stroke="#F3F3F3"/>
<path d="M42.2791 143.724C38.4811 143.724 35.8711 146.352 35.8711 150.006C35.8711 153.66 38.4811 156.27 42.2791 156.27C46.0771 156.27 48.6871 153.66 48.6871 150.006C48.6871 146.352 46.0771 143.724 42.2791 143.724ZM42.2791 154.146C39.9391 154.146 38.2831 152.436 38.2831 150.006C38.2831 147.576 39.9391 145.848 42.2791 145.848C44.6191 145.848 46.2751 147.576 46.2751 150.006C46.2751 152.436 44.6191 154.146 42.2791 154.146ZM54.5876 160.122H56.7836V156.108H56.9636C57.8816 156.108 58.9256 155.892 59.6996 155.334C60.4016 154.866 61.2476 153.822 61.2476 152.094C61.2476 150.348 60.4016 149.376 59.6996 148.854C58.7816 148.206 57.7016 148.098 56.9636 148.098H56.7836V143.994H54.5876V148.098H54.4076C53.6696 148.098 52.5896 148.206 51.6716 148.854C50.9696 149.376 50.1236 150.348 50.1236 152.094C50.1236 153.822 50.9696 154.866 51.6716 155.334C52.4456 155.892 53.4896 156.108 54.4076 156.108H54.5876V160.122ZM54.5876 154.164C54.0836 154.164 53.5436 154.056 53.1836 153.786C52.4816 153.3 52.3916 152.598 52.3916 152.094C52.3916 151.5 52.5716 150.834 53.2016 150.402C53.6156 150.132 54.1016 150.024 54.5876 150.042V154.164ZM56.7836 150.042C57.2696 150.024 57.7556 150.132 58.1696 150.402C58.7996 150.834 58.9796 151.5 58.9796 152.094C58.9796 152.598 58.8896 153.3 58.1876 153.786C57.8276 154.056 57.2876 154.164 56.7836 154.164V150.042ZM68.5273 150.078V148.206H62.0113V150.078H64.1713V156H66.3673V150.078H68.5273ZM75.6557 149.214C74.9357 148.062 73.7297 147.954 73.1537 147.954C70.8497 147.954 69.2837 149.79 69.2837 152.094C69.2837 154.398 70.8857 156.252 73.2617 156.252C73.8377 156.252 74.8637 156.126 75.6557 154.992V156H77.8517V148.206H75.6557V149.214ZM73.7117 149.898C74.9537 149.898 75.8717 150.87 75.8717 152.094C75.8717 153.336 74.9537 154.308 73.7117 154.308C72.4697 154.308 71.5517 153.336 71.5517 152.094C71.5517 150.87 72.4697 149.898 73.7117 149.898ZM86.8574 148.206H80.5574V152.796C80.5574 153.102 80.5214 153.498 80.2874 153.786C80.1434 153.984 79.8734 154.164 79.3874 154.164C79.2614 154.164 79.1714 154.146 79.0454 154.128V156C79.2434 156.054 79.4594 156.072 79.6934 156.072C80.9534 156.072 81.6554 155.424 81.7994 155.244C82.4294 154.524 82.5374 153.588 82.5374 152.94V150.078H84.6614V156H86.8574V148.206ZM88.9454 148.206V156H92.9594C93.4814 156 94.1294 155.928 94.7054 155.424C95.0834 155.082 95.5334 154.47 95.5334 153.444C95.5334 152.67 95.2814 152.13 94.9394 151.77C94.3814 151.176 93.5534 150.978 92.8514 150.978H91.1414V148.206H88.9454ZM91.1414 154.272V152.706H92.2214C92.4194 152.706 92.7434 152.724 92.9774 152.886C93.1214 152.976 93.2654 153.156 93.2654 153.444C93.2654 153.75 93.1214 153.948 92.9774 154.074C92.7434 154.272 92.4014 154.272 92.1674 154.272H91.1414ZM96.2209 156H98.4169L99.0649 151.77L101.009 156H101.801L103.745 151.77L104.393 156H106.589L105.167 148.206H103.547L101.405 152.688L99.2629 148.206H97.6429L96.2209 156ZM112.103 147.954C110.609 147.954 109.619 148.422 108.953 149.052C108.179 149.754 107.639 150.816 107.639 152.112C107.639 153.39 108.179 154.452 108.953 155.154C109.619 155.784 110.609 156.252 112.103 156.252C113.597 156.252 114.587 155.784 115.253 155.154C116.027 154.452 116.567 153.39 116.567 152.112C116.567 150.816 116.027 149.754 115.253 149.052C114.587 148.422 113.597 147.954 112.103 147.954ZM112.103 154.308C110.825 154.308 109.907 153.3 109.907 152.112C109.907 150.888 110.843 149.898 112.103 149.898C113.363 149.898 114.299 150.888 114.299 152.112C114.299 153.3 113.381 154.308 112.103 154.308ZM125.178 148.206H118.878V152.796C118.878 153.102 118.842 153.498 118.608 153.786C118.464 153.984 118.194 154.164 117.708 154.164C117.582 154.164 117.492 154.146 117.366 154.128V156C117.564 156.054 117.78 156.072 118.014 156.072C119.274 156.072 119.976 155.424 120.12 155.244C120.75 154.524 120.858 153.588 120.858 152.94V150.078H122.982V156H125.178V148.206ZM131.334 147.954C129.84 147.954 128.85 148.422 128.184 149.052C127.41 149.754 126.87 150.816 126.87 152.112C126.87 153.39 127.41 154.452 128.184 155.154C128.85 155.784 129.84 156.252 131.334 156.252C132.828 156.252 133.818 155.784 134.484 155.154C135.258 154.452 135.798 153.39 135.798 152.112C135.798 150.816 135.258 149.754 134.484 149.052C133.818 148.422 132.828 147.954 131.334 147.954ZM131.334 154.308C130.056 154.308 129.138 153.3 129.138 152.112C129.138 150.888 130.074 149.898 131.334 149.898C132.594 149.898 133.53 150.888 133.53 152.112C133.53 153.3 132.612 154.308 131.334 154.308ZM137.496 156H139.692V150.078H142.464V148.206H137.496V156ZM143.613 148.206V156H145.809L149.409 151.194V156H151.605V148.206H149.409L145.809 153.012V148.206H143.613ZM153.002 156H155.522L157.43 153.264H157.682V156H159.878V148.206H156.782C156.044 148.206 155.144 148.26 154.37 148.854C153.92 149.214 153.434 149.826 153.434 150.816C153.434 151.626 153.74 152.166 154.046 152.472C154.532 152.958 155.18 153.084 155.306 153.084L153.002 156ZM157.682 151.68H156.728C156.494 151.68 156.224 151.68 155.99 151.482C155.756 151.284 155.702 151.104 155.702 150.834C155.702 150.564 155.792 150.33 155.99 150.15C156.224 149.934 156.458 149.934 156.728 149.934H157.682V151.68Z" fill="#333333"/>
<path d="M132.672 49.9844V87.9531H114.953V105.672H76.9844V87.9531H59.2656V49.9844H76.9844V32.2656H114.953V49.9844H132.672Z" fill="#6B9777"/>
<path d="M130.141 49.9844V87.9531H112.422V105.672H76.9844V87.9531H59.2656V49.9844H76.9844V32.2656H112.422V49.9844H130.141Z" fill="#85BC94"/>
<path d="M78.25 81.625H76.9844C75.8998 81.625 74.8465 81.2625 73.9916 80.5951C73.1368 79.9277 72.5296 78.9937 72.2666 77.9416L70.6562 71.5L69.8177 72.3385C68.899 73.2572 68.2068 74.3772 67.7959 75.6098C67.385 76.8425 67.2668 78.1538 67.4506 79.4401C67.882 82.4602 69.4955 85.1852 71.9361 87.0158C72.7482 87.6245 73.7359 87.9534 74.7508 87.9531H78.25V81.625Z" fill="#744630"/>
<path d="M111.156 103.141L109.891 105.672H76.9844V86.9565C76.9843 84.2637 77.418 81.5885 78.269 79.0337L78.9587 76.9659C80.1551 73.3731 82.1722 70.1084 84.8502 67.431L84.9436 67.3377C87.2065 65.0786 89.0167 62.4076 90.2766 59.4687C90.7734 58.3106 91.2685 57.1526 91.6292 56.3125C91.9567 55.5484 92.1719 55.0469 92.1719 55.0469H88.53C87.4014 55.0457 86.3054 54.6678 85.4159 53.9732C84.5263 53.2785 83.8941 52.3068 83.6194 51.2121L82.9961 48.7188L82.8331 48.067C82.7399 47.6938 82.7329 47.3043 82.8126 46.9281C82.8924 46.5518 83.0569 46.1987 83.2936 45.8955C83.5303 45.5923 83.833 45.3471 84.1786 45.1784C84.5243 45.0097 84.9038 44.922 85.2885 44.9219H89.6406C90.4567 42.4714 92.1228 40.3939 94.3377 39.0652L94.8914 38.7346C96.3148 37.8809 97.9305 37.3999 99.5891 37.3361C101.248 37.2722 102.896 37.6275 104.38 38.3691L104.436 38.3976C106.075 39.2172 107.453 40.477 108.417 42.0359C109.38 43.5948 109.891 45.3912 109.891 47.2238V101.875L111.156 103.141Z" fill="#F3AF3E"/>
<path d="M83.9453 105.672C82.4353 105.67 80.9877 105.07 79.92 104.002C78.8523 102.934 78.2517 101.487 78.25 99.9766V99.0273C78.2521 98.1436 78.4589 97.2723 78.8542 96.4818C79.2494 95.6913 79.8224 95.0031 80.5281 94.4711C81.3908 93.821 82.0911 92.9798 82.5742 92.0137C83.0573 91.0475 83.31 89.9825 83.3125 88.9023V87.9531C83.3125 87.6175 83.4458 87.2955 83.6832 87.0582C83.9205 86.8208 84.2425 86.6875 84.5781 86.6875C84.9138 86.6875 85.2357 86.8208 85.4731 87.0582C85.7104 87.2955 85.8438 87.6175 85.8438 87.9531V88.9023C85.8402 90.3753 85.4956 91.8275 84.8369 93.145C84.1781 94.4625 83.2232 95.6095 82.0469 96.4961C81.6548 96.7917 81.3365 97.174 81.1169 97.6132C80.8974 98.0523 80.7825 98.5364 80.7812 99.0273V99.9766C80.7812 100.816 81.1146 101.621 81.708 102.214C82.3014 102.807 83.1062 103.141 83.9453 103.141C84.7845 103.141 85.5893 102.807 86.1826 102.214C86.776 101.621 87.1094 100.816 87.1094 99.9766V99.3438C87.1105 98.3371 87.511 97.372 88.2227 96.6602C88.9345 95.9485 89.8996 95.548 90.9062 95.5469C91.2419 95.5469 91.5638 95.6802 91.8012 95.9176C92.0385 96.1549 92.1719 96.4768 92.1719 96.8125C92.1719 97.1482 92.0385 97.4701 91.8012 97.7074C91.5638 97.9448 91.2419 98.0781 90.9062 98.0781C90.5707 98.0785 90.249 98.212 90.0117 98.4492C89.7745 98.6865 89.641 99.0082 89.6406 99.3438V99.9766C89.639 101.487 89.0384 102.934 87.9707 104.002C86.9029 105.07 85.4553 105.67 83.9453 105.672Z" fill="#CD761F"/>
<path d="M111.156 103.141L109.891 105.672H96.3532C95.3055 105.672 94.268 105.466 93.3 105.065C92.332 104.664 91.4525 104.076 90.7117 103.335C89.9708 102.594 89.3831 101.715 88.9822 100.747C88.5813 99.7789 88.375 98.7414 88.375 97.6937C88.3746 96.2693 88.5733 94.8518 88.9651 93.4823L89.1534 92.8242C90.279 88.8812 92.862 85.5138 96.3785 83.4048C96.9372 83.0691 97.3888 82.5813 97.6805 81.9984L99.7656 77.8281H95.4799C95.0455 77.8281 94.6153 77.7426 94.214 77.5764C93.8126 77.4101 93.4479 77.1665 93.1407 76.8593C92.8335 76.5521 92.5899 76.1874 92.4236 75.7861C92.2574 75.3847 92.1719 74.9545 92.1719 74.5201V71.5H95.9688L96.2836 70.5555C96.5747 69.6812 97.0819 68.8945 97.758 68.2683C98.4342 67.6422 99.2575 67.197 100.152 66.9738L102.297 66.4375V62.6406L105.994 65.4139C106.893 66.0858 107.622 66.9593 108.122 67.9642C109.285 70.2895 109.89 72.8536 109.891 75.4535V101.875L111.156 103.141Z" fill="#E08122"/>
<path d="M101.927 77.4579L100.661 78.7235C100.423 78.9607 100.101 79.0938 99.7656 79.0937H99.1328L99.7656 77.8281H95.4799C94.9991 77.8288 94.524 77.7244 94.0879 77.5222C93.6517 77.32 93.265 77.0248 92.955 76.6574C93.108 76.5943 93.272 76.562 93.4375 76.5625H99.242L100.136 75.667C100.373 75.4296 100.695 75.2961 101.031 75.2961C101.367 75.2961 101.689 75.4296 101.927 75.667C102.164 75.9045 102.298 76.2266 102.298 76.5625C102.298 76.8983 102.164 77.2204 101.927 77.4579Z" fill="#CD761F"/>
<path d="M104.828 89.2188C104.492 89.2188 104.171 89.3521 103.933 89.5894C103.696 89.8268 103.562 90.1487 103.562 90.4844V99.6402C103.08 99.4441 102.564 99.3435 102.044 99.3438H100.865L101.038 99.0843C101.593 98.2512 101.912 97.2829 101.96 96.2827C102.008 95.2826 101.784 94.2881 101.312 93.4053C100.839 92.5225 100.136 91.7846 99.2768 91.2702C98.4178 90.7558 97.4352 90.4842 96.4339 90.4844H95.9688C95.6331 90.4844 95.3112 90.6177 95.0738 90.8551C94.8365 91.0924 94.7031 91.4143 94.7031 91.75C94.7031 92.0857 94.8365 92.4076 95.0738 92.6449C95.3112 92.8823 95.6331 93.0156 95.9688 93.0156H96.4339C96.9771 93.0154 97.5103 93.1626 97.9764 93.4417C98.4425 93.7207 98.8241 94.121 99.0806 94.6C99.337 95.0789 99.4586 95.6184 99.4324 96.1611C99.4063 96.7037 99.2333 97.229 98.9319 97.681L97.4464 99.907C97.3197 100.098 97.247 100.319 97.2362 100.548C97.2254 100.777 97.2767 101.004 97.3848 101.206C97.4929 101.408 97.6537 101.577 97.85 101.694C98.0464 101.812 98.271 101.875 98.5 101.875H102.044C102.446 101.876 102.832 102.036 103.117 102.321C103.402 102.605 103.562 102.991 103.562 103.394V105.672H106.094V90.4844C106.094 90.1487 105.96 89.8268 105.723 89.5894C105.486 89.3521 105.164 89.2188 104.828 89.2188Z" fill="#CD761F"/>
<path d="M109.891 47.4531V51.0443C109.891 51.8412 109.64 52.6179 109.174 53.2644C108.708 53.9109 108.05 54.3943 107.294 54.6463C106.515 54.9061 105.672 54.9061 104.893 54.6463C104.137 54.3943 103.48 53.9109 103.014 53.2644C102.548 52.6179 102.297 51.8412 102.297 51.0443V44.9219H107.359L109.891 47.4531Z" fill="#744630"/>
<path d="M98.1298 53.411L95.5986 55.9423C95.3609 56.1794 95.0389 56.3126 94.7031 56.3125H91.6292C91.9567 55.5484 92.1719 55.0468 92.1719 55.0468H88.53C87.3582 55.0479 86.2226 54.6407 85.3185 53.8951C85.4834 53.8201 85.6625 53.7812 85.8437 53.7812H94.1795L96.3389 51.6202C96.4565 51.5026 96.5961 51.4093 96.7498 51.3457C96.9034 51.282 97.0681 51.2493 97.2344 51.2493C97.4007 51.2493 97.5653 51.282 97.719 51.3457C97.8726 51.4093 98.0122 51.5026 98.1298 51.6202C98.2474 51.7378 98.3407 51.8774 98.4043 52.031C98.4679 52.1846 98.5007 52.3493 98.5007 52.5156C98.5007 52.6819 98.4679 52.8466 98.4043 53.0002C98.3407 53.1538 98.2474 53.2934 98.1298 53.411Z" fill="#D18D28"/>
<path d="M87.1094 44.9219V47.4531C87.1094 47.7888 86.976 48.1107 86.7387 48.3481C86.5013 48.5854 86.1794 48.7188 85.8438 48.7188H82.9961L82.8331 48.067C82.7399 47.6938 82.7329 47.3043 82.8127 46.928C82.8924 46.5518 83.0569 46.1987 83.2936 45.8955C83.5303 45.5923 83.833 45.347 84.1786 45.1783C84.5243 45.0096 84.9038 44.9219 85.2885 44.9219H87.1094Z" fill="#D18D28"/>
<path d="M91.0352 68.3736C90.8002 68.3734 90.57 68.3078 90.3702 68.1842C90.1704 68.0605 90.009 67.8837 89.904 67.6735C89.799 67.4633 89.7546 67.228 89.7758 66.9941C89.7969 66.7601 89.8828 66.5366 90.0238 66.3486C91.5332 64.3372 92.7079 62.0952 93.5023 59.7091C93.6085 59.3907 93.8368 59.1274 94.137 58.9773C94.4373 58.8272 94.7849 58.8025 95.1033 58.9086C95.4218 59.0148 95.6851 59.2431 95.8352 59.5434C95.9853 59.8436 96.01 60.1912 95.9039 60.5097C95.0233 63.1538 93.7214 65.6384 92.0486 67.8674C91.9307 68.0248 91.7777 68.1525 91.6018 68.2404C91.4259 68.3283 91.2318 68.3739 91.0352 68.3736Z" fill="#D18D28"/>
<path d="M82.0469 86.6875C81.7112 86.6875 81.3893 86.5542 81.1519 86.3168C80.9146 86.0795 80.7812 85.7575 80.7812 85.4219C80.7903 81.0419 82.2105 76.7813 84.8313 73.2719C85.0327 73.0033 85.3325 72.8258 85.6648 72.7784C85.9971 72.7309 86.3346 72.8174 86.6031 73.0188C86.8717 73.2202 87.0492 73.52 87.0967 73.8523C87.1441 74.1846 87.0577 74.5221 86.8563 74.7906C84.5631 77.8614 83.3204 81.5894 83.3125 85.4219C83.3125 85.7575 83.1792 86.0795 82.9418 86.3168C82.7045 86.5542 82.3825 86.6875 82.0469 86.6875Z" fill="#D18D28"/>
<path d="M95.9688 47.4531C96.6677 47.4531 97.2344 46.8865 97.2344 46.1875C97.2344 45.4885 96.6677 44.9219 95.9688 44.9219C95.2698 44.9219 94.7031 45.4885 94.7031 46.1875C94.7031 46.8865 95.2698 47.4531 95.9688 47.4531Z" fill="#D18D28"/>
<path d="M101.031 72.7656C101.73 72.7656 102.297 72.199 102.297 71.5C102.297 70.801 101.73 70.2344 101.031 70.2344C100.332 70.2344 99.7656 70.801 99.7656 71.5C99.7656 72.199 100.332 72.7656 101.031 72.7656Z" fill="#CD761F"/>
<path d="M132.672 48.7188H116.219V32.2656C116.219 31.93 116.085 31.608 115.848 31.3707C115.611 31.1333 115.289 31 114.953 31H76.9844C76.6487 31 76.3268 31.1333 76.0894 31.3707C75.8521 31.608 75.7188 31.93 75.7188 32.2656V48.7188H59.2656C58.93 48.7188 58.608 48.8521 58.3707 49.0894C58.1333 49.3268 58 49.6487 58 49.9844V87.9531C58 88.2888 58.1333 88.6107 58.3707 88.8481C58.608 89.0854 58.93 89.2188 59.2656 89.2188H75.7188V105.672C75.7188 106.008 75.8521 106.329 76.0894 106.567C76.3268 106.804 76.6487 106.938 76.9844 106.938H114.953C115.289 106.938 115.611 106.804 115.848 106.567C116.085 106.329 116.219 106.008 116.219 105.672V89.2188H132.672C133.008 89.2188 133.329 89.0854 133.567 88.8481C133.804 88.6107 133.938 88.2888 133.938 87.9531V49.9844C133.938 49.6487 133.804 49.3268 133.567 49.0894C133.329 48.8521 133.008 48.7188 132.672 48.7188ZM75.7214 86.6875H74.7505C74.0097 86.6876 73.2888 86.4474 72.6961 86.003C70.5245 84.373 69.0887 81.9477 68.704 79.2599C68.4474 77.4293 68.9101 75.5706 69.9951 74.0741L71.0393 78.2489C71.3306 79.4192 71.9613 80.4773 72.8521 81.2902C73.743 82.1032 74.8542 82.6346 76.0462 82.8179C75.8428 84.098 75.7342 85.3914 75.7214 86.6875ZM78.25 104.406V99.9766C78.2482 100.725 78.3948 101.466 78.6812 102.158C78.9676 102.849 79.3882 103.477 79.9187 104.005C80.0607 104.146 80.2099 104.28 80.3658 104.406H78.25ZM87.1094 99.3438V99.9766C87.1094 100.816 86.776 101.621 86.1826 102.214C85.5893 102.807 84.7845 103.141 83.9453 103.141C83.1062 103.141 82.3014 102.807 81.708 102.214C81.1146 101.621 80.7812 100.816 80.7812 99.9766V99.0273C80.7825 98.5364 80.8974 98.0523 81.1169 97.6132C81.3365 97.174 81.6548 96.7917 82.0469 96.4961C83.2259 95.612 84.1828 94.4656 84.8419 93.1475C85.5009 91.8294 85.8439 90.376 85.8438 88.9023V87.9531C85.8438 87.6175 85.7104 87.2955 85.4731 87.0582C85.2357 86.8208 84.9138 86.6875 84.5781 86.6875C84.2425 86.6875 83.9205 86.8208 83.6832 87.0582C83.4458 87.2955 83.3125 87.6175 83.3125 87.9531V88.9023C83.3127 89.983 83.0612 91.0489 82.5779 92.0155C82.0946 92.9821 81.3928 93.8228 80.5281 94.4711C79.8224 95.0031 79.2495 95.6914 78.8543 96.4818C78.459 97.2723 78.2522 98.1436 78.25 99.0273V86.9564C78.2499 85.2543 78.4325 83.5571 78.7949 81.8939C78.7966 81.8859 78.7985 81.8781 78.8001 81.8699C78.98 81.0465 79.2035 80.2333 79.4696 79.4336L80.1597 77.3651C81.2977 73.9607 83.2096 70.8665 85.7452 68.3257L85.8387 68.2322C88.2167 65.8603 90.118 63.0546 91.4399 59.967L93.0061 56.3125H94.7031C94.8693 56.3125 95.0339 56.2798 95.1875 56.2162C95.341 56.1526 95.4806 56.0594 95.5981 55.9418L98.1293 53.4106C98.3667 53.1732 98.5 52.8513 98.5 52.5156C98.5 52.18 98.3667 51.858 98.1293 51.6207C97.892 51.3833 97.57 51.25 97.2344 51.25C96.8987 51.25 96.5768 51.3833 96.3394 51.6207L94.179 53.7812H88.53C87.6831 53.7822 86.8602 53.4994 86.1927 52.9781C85.5251 52.4568 85.0514 51.7269 84.8471 50.905L84.6169 49.9844H85.8438C86.5148 49.9836 87.1582 49.7166 87.6327 49.2421C88.1073 48.7676 88.3742 48.1242 88.375 47.4531V46.1875H89.6406C89.9063 46.1875 90.1652 46.104 90.3807 45.9486C90.5962 45.7933 90.7574 45.5741 90.8414 45.3221C91.5617 43.1593 93.0319 41.3254 94.9863 40.1521L95.5429 39.8198C96.7816 39.0772 98.1873 38.6582 99.6304 38.6014C101.074 38.5447 102.508 38.8519 103.801 39.4949L103.869 39.5295C105.677 40.4275 107.11 41.9352 107.915 43.7866C107.742 43.7015 107.552 43.6569 107.359 43.6562H102.297C101.961 43.6562 101.639 43.7896 101.402 44.0269C101.165 44.2643 101.031 44.5862 101.031 44.9219V51.0443C101.029 51.9339 101.261 52.8085 101.705 53.5795C102.149 54.3505 102.788 54.9906 103.559 55.4351C104.329 55.8796 105.204 56.1128 106.093 56.111C106.983 56.1092 107.856 55.8726 108.625 55.425V66.3461C108.108 65.6022 107.477 64.9453 106.754 64.4002L103.056 61.6281C102.868 61.4871 102.645 61.4012 102.411 61.3801C102.176 61.359 101.941 61.4035 101.731 61.5086C101.521 61.6137 101.344 61.7753 101.22 61.9752C101.097 62.1752 101.031 62.4056 101.031 62.6406V65.4494L99.8447 65.7462C98.7429 66.0185 97.7282 66.5657 96.8954 67.3368C96.0626 68.1079 95.4389 69.0776 95.0828 70.1553L95.0564 70.2344H92.1719C91.8362 70.2344 91.5143 70.3677 91.2769 70.6051C91.0396 70.8424 90.9062 71.1643 90.9062 71.5V74.5217C90.9078 75.7339 91.3902 76.896 92.2474 77.7531C93.1047 78.6102 94.2669 79.0924 95.4791 79.0938H97.7178L96.5487 81.4318C96.3651 81.7997 96.0802 82.1075 95.7275 82.3189C91.9321 84.5891 89.1455 88.2215 87.9361 92.4755L87.7479 93.1341C87.3242 94.617 87.1093 96.1518 87.1094 97.694C87.1098 98.0295 87.1283 98.3647 87.1649 98.6981C87.1281 98.9114 87.1096 99.1274 87.1094 99.3438ZM84.0244 47.4531C84.0244 47.4458 84.0244 47.4386 84.0244 47.4313C84.0254 47.378 84.0297 47.3248 84.0374 47.272C84.0396 47.2562 84.0417 47.2403 84.0445 47.2255C84.0552 47.1651 84.0702 47.1057 84.0894 47.0475C84.0917 47.0412 84.0947 47.035 84.097 47.0287C84.116 46.9762 84.1384 46.925 84.1643 46.8755C84.1719 46.8608 84.1801 46.8463 84.1877 46.8319C84.2184 46.7767 84.2531 46.7238 84.2915 46.6737C84.4094 46.5219 84.5606 46.3991 84.7333 46.3149C84.9061 46.2306 85.0959 46.1871 85.2881 46.1877H85.8438V47.4533L84.0244 47.4531ZM108.625 47.9773V51.0443C108.625 51.7157 108.358 52.3595 107.884 52.8342C107.409 53.3089 106.765 53.5756 106.094 53.5756C105.422 53.5756 104.779 53.3089 104.304 52.8342C103.829 52.3595 103.562 51.7157 103.562 51.0443V46.1875H106.835L108.625 47.9773ZM87.5196 104.406C88.0155 104.005 88.4412 103.524 88.7791 102.983C89.1395 103.498 89.5512 103.975 90.0077 104.406H87.5196ZM109.108 104.406H106.094V90.4844C106.094 90.1487 105.96 89.8268 105.723 89.5894C105.486 89.3521 105.164 89.2188 104.828 89.2188C104.492 89.2188 104.171 89.3521 103.933 89.5894C103.696 89.8268 103.562 90.1487 103.562 90.4844V99.6404C103.08 99.4443 102.564 99.3435 102.044 99.3438H100.865L101.038 99.0849C101.593 98.2518 101.912 97.2835 101.96 96.2834C102.009 95.2832 101.785 94.2887 101.312 93.4059C100.84 92.5231 100.136 91.7851 99.2773 91.2706C98.4183 90.7561 97.4358 90.4843 96.4345 90.4844H95.9688C95.6331 90.4844 95.3112 90.6177 95.0738 90.8551C94.8365 91.0924 94.7031 91.4143 94.7031 91.75C94.7031 92.0857 94.8365 92.4076 95.0738 92.6449C95.3112 92.8823 95.6331 93.0156 95.9688 93.0156H96.4345C96.9776 93.0156 97.5106 93.163 97.9765 93.442C98.4425 93.7211 98.824 94.1214 99.0803 94.6003C99.3366 95.0791 99.4581 95.6186 99.4319 96.1611C99.4057 96.7036 99.2327 97.2288 98.9314 97.6807L97.447 99.9073C97.3199 100.098 97.2469 100.319 97.2359 100.548C97.2248 100.777 97.276 101.005 97.3841 101.207C97.4922 101.409 97.6531 101.577 97.8496 101.695C98.0461 101.813 98.2709 101.875 98.5 101.875H102.044C102.446 101.876 102.832 102.036 103.117 102.32C103.402 102.605 103.562 102.991 103.562 103.394V104.406H96.3529C94.5733 104.404 92.8672 103.696 91.6088 102.438C90.3505 101.18 89.6426 99.4736 89.6406 97.694C89.6406 96.3871 89.8228 95.0865 90.1818 93.8299L90.3699 93.1713C91.4038 89.5349 93.7858 86.4298 97.0303 84.4893C97.796 84.0306 98.4146 83.3626 98.8134 82.5641L100.807 78.5774L101.927 77.4568C102.165 77.2195 102.298 76.8975 102.298 76.5619C102.298 76.2262 102.165 75.9043 101.927 75.6669C101.69 75.4296 101.368 75.2962 101.032 75.2962C100.697 75.2962 100.375 75.4296 100.137 75.6669L99.2415 76.5625H95.4791C94.938 76.5619 94.4191 76.3467 94.0364 75.9642C93.6537 75.5816 93.4383 75.0628 93.4375 74.5217V72.7656H95.9688C96.2344 72.7656 96.4933 72.6821 96.7088 72.5268C96.9243 72.3715 97.0855 72.1523 97.1695 71.9003L97.4843 70.9559C97.7068 70.2828 98.0963 69.6771 98.6164 69.1954C99.1366 68.7137 99.7704 68.3718 100.459 68.2016L102.604 67.6653C102.878 67.5968 103.121 67.4388 103.294 67.2163C103.468 66.9939 103.562 66.7197 103.562 66.4375V65.1719L105.235 66.4263C105.975 66.9826 106.576 67.7028 106.991 68.5304C108.063 70.681 108.622 73.0507 108.625 75.4537V101.875C108.625 102.041 108.658 102.206 108.721 102.359C108.785 102.513 108.878 102.652 108.996 102.77L109.616 103.391L109.108 104.406ZM131.406 86.6875H114.953C114.617 86.6875 114.296 86.8208 114.058 87.0582C113.821 87.2955 113.688 87.6175 113.688 87.9531V104.406H111.938L112.288 103.707C112.407 103.469 112.448 103.2 112.405 102.938C112.363 102.676 112.239 102.433 112.051 102.246L111.156 101.351V47.2237C111.164 45.1571 110.592 43.1297 109.507 41.371C108.421 39.6123 106.865 38.1927 105.014 37.2728L104.945 37.2375C103.271 36.4007 101.412 35.9997 99.5412 36.0716C97.6704 36.1435 95.848 36.6859 94.2424 37.6488L93.6865 37.981C91.4847 39.3017 89.7609 41.2896 88.7653 43.6562H85.2885C84.7115 43.6563 84.1421 43.7879 83.6236 44.0409C83.1051 44.2939 82.6511 44.6618 82.2961 45.1166C81.941 45.5714 81.6943 46.1011 81.5746 46.6655C81.4549 47.2299 81.4654 47.8141 81.6053 48.3739L82.3914 51.5188C82.7321 52.8887 83.5216 54.105 84.6342 54.9738C85.7467 55.8426 87.1181 56.3139 88.5297 56.3123H90.2521L89.113 58.9702C87.918 61.7617 86.1987 64.2983 84.0485 66.4424L83.955 66.5359C81.1419 69.3554 79.0208 72.7886 77.7581 76.566L77.0681 78.6342C76.8811 79.1957 76.7137 79.7619 76.5661 80.3328C75.8404 80.2492 75.1576 79.9461 74.6087 79.4641C74.0598 78.9822 73.671 78.3442 73.4943 77.6354L71.8841 71.1931C71.8298 70.9758 71.7188 70.7768 71.5624 70.6165C71.406 70.4561 71.2099 70.3401 70.9941 70.2803C70.7782 70.2205 70.5504 70.2191 70.3338 70.2761C70.1172 70.3332 69.9197 70.4467 69.7613 70.605L68.9228 71.4435C67.8685 72.5031 67.0738 73.7924 66.6011 75.2104C66.1284 76.6284 65.9904 78.1367 66.1981 79.6169C66.5777 82.2801 67.7899 84.7549 69.6612 86.6875H60.5312V51.25H76.9844C77.32 51.25 77.642 51.1167 77.8793 50.8793C78.1167 50.642 78.25 50.32 78.25 49.9844V33.5312H113.688V49.9844C113.688 50.32 113.821 50.642 114.058 50.8793C114.296 51.1167 114.617 51.25 114.953 51.25H131.406V86.6875Z" fill="black"/>
<path d="M90.2768 68.1205C90.4097 68.2202 90.561 68.2928 90.722 68.334C90.883 68.3753 91.0506 68.3844 91.2151 68.3609C91.3797 68.3374 91.538 68.2817 91.681 68.197C91.824 68.1124 91.9489 68.0003 92.0486 67.8674C93.7215 65.6384 95.0233 63.1538 95.9039 60.5097C96.01 60.1912 95.9853 59.8436 95.8352 59.5434C95.6851 59.2431 95.4219 59.0148 95.1034 58.9086C94.7849 58.8025 94.4373 58.8272 94.1371 58.9773C93.8368 59.1274 93.6085 59.3907 93.5024 59.7092C92.7079 62.0952 91.5332 64.3372 90.0238 66.3486C89.8224 66.6171 89.7359 66.9547 89.7833 67.287C89.8308 67.6192 90.0083 67.9191 90.2768 68.1205Z" fill="black"/>
<path d="M86.6031 73.0188C86.3346 72.8174 85.9971 72.7309 85.6648 72.7784C85.3325 72.8258 85.0327 73.0033 84.8313 73.2719C82.2105 76.7813 80.7903 81.0419 80.7812 85.4219C80.7812 85.7575 80.9146 86.0795 81.1519 86.3168C81.3893 86.5542 81.7112 86.6875 82.0469 86.6875C82.3825 86.6875 82.7045 86.5542 82.9418 86.3168C83.1792 86.0795 83.3125 85.7575 83.3125 85.4219C83.3204 81.5894 84.5631 77.8614 86.8563 74.7906C87.0577 74.5221 87.1441 74.1846 87.0967 73.8523C87.0492 73.52 86.8717 73.2202 86.6031 73.0188Z" fill="black"/>
<path d="M95.9688 47.4531C96.6677 47.4531 97.2344 46.8865 97.2344 46.1875C97.2344 45.4885 96.6677 44.9219 95.9688 44.9219C95.2698 44.9219 94.7031 45.4885 94.7031 46.1875C94.7031 46.8865 95.2698 47.4531 95.9688 47.4531Z" fill="black"/>
<path d="M101.031 72.7656C101.73 72.7656 102.297 72.199 102.297 71.5C102.297 70.801 101.73 70.2344 101.031 70.2344C100.332 70.2344 99.7656 70.801 99.7656 71.5C99.7656 72.199 100.332 72.7656 101.031 72.7656Z" fill="black"/>
</svg>
