<svg width="193" height="215" viewBox="0 0 193 215" fill="none" xmlns="http://www.w3.org/2000/svg">
<path d="M0 5C0 2.23858 2.23858 0 5 0H188C190.761 0 193 2.23858 193 5V215H0V5Z" fill="white"/>
<path d="M54.2537 132.994V145H56.5937V135.01H61.4177V145H63.7577V132.994H54.2537ZM71.7981 142.498C71.4381 143.128 70.8261 143.524 69.9801 143.524C69.1341 143.524 68.6481 143.128 68.4141 142.786C68.1441 142.444 68.0361 141.958 68.0361 141.472H73.8681V141.292C73.8681 140.41 73.7601 139.258 72.9321 138.232C72.3741 137.584 71.4741 136.954 69.8901 136.954C68.9541 136.954 67.8741 137.17 66.9561 138.052C66.3981 138.61 65.7681 139.546 65.7681 141.112C65.7681 142.336 66.1281 143.344 66.9921 144.154C67.7661 144.892 68.7021 145.252 69.9801 145.252C72.7161 145.252 73.5801 143.398 73.8141 142.822L71.7981 142.498ZM68.1081 140.068C68.3061 139.006 69.1341 138.502 69.9441 138.502C70.7541 138.502 71.6001 138.988 71.7981 140.068H68.1081ZM77.7644 143.992C78.6284 145.144 79.7264 145.252 80.2664 145.252C81.4184 145.252 82.3184 144.802 82.9124 144.244C83.3624 143.794 84.1364 142.876 84.1364 141.094C84.1364 139.528 83.5424 138.574 82.9664 137.998C82.0844 137.116 80.9684 136.954 80.3024 136.954C78.8624 136.954 78.1064 137.728 77.7644 138.214V137.206H75.5684V149.122H77.7644V143.992ZM79.7084 138.898C80.2304 138.898 80.7884 139.096 81.2024 139.456C81.6344 139.87 81.8684 140.518 81.8684 141.094C81.8684 141.67 81.6704 142.318 81.1844 142.75C80.8964 143.02 80.4284 143.308 79.7084 143.308C79.0064 143.308 78.5564 143.056 78.2684 142.786C77.8364 142.408 77.5484 141.814 77.5484 141.094C77.5484 140.392 77.8004 139.834 78.2864 139.42C78.6644 139.078 79.1504 138.898 79.7084 138.898ZM85.834 137.206V145H89.848C90.172 145 90.982 144.964 91.594 144.496C91.972 144.208 92.422 143.686 92.422 142.768C92.422 142.066 92.17 141.616 91.828 141.31C91.522 141.04 91.18 140.878 90.802 140.806C91.504 140.5 91.882 139.87 91.882 139.204C91.882 138.556 91.576 138.016 91.126 137.674C90.496 137.188 89.794 137.206 89.272 137.206H85.834ZM88.03 140.302V138.934H89.002C89.218 138.934 89.452 138.934 89.65 139.06C89.776 139.15 89.902 139.33 89.902 139.618C89.902 139.852 89.812 140.032 89.614 140.158C89.38 140.302 89.092 140.302 89.038 140.302H88.03ZM88.03 143.272V141.706H89.11C89.308 141.706 89.632 141.724 89.866 141.886C90.01 141.976 90.154 142.156 90.154 142.444C90.154 142.75 90.01 142.948 89.866 143.074C89.632 143.272 89.29 143.272 89.056 143.272H88.03ZM94.043 137.206V145H96.239L99.839 140.194V145H102.035V137.206H99.839L96.239 142.012V137.206H94.043ZM108.543 145H110.739V137.206H108.543V140.536C108.129 140.608 107.823 140.644 107.409 140.644C107.121 140.644 106.599 140.644 106.293 140.356C106.023 140.086 106.023 139.78 106.023 139.51V137.206H103.827V139.96C103.827 140.536 103.899 141.202 104.529 141.796C105.231 142.444 106.113 142.516 106.707 142.516C107.355 142.516 107.985 142.462 108.543 142.336V145ZM112.834 145H115.03V141.832H118.09V145H120.286V137.206H118.09V139.96H115.03V137.206H112.834V145ZM122.379 137.206V145H126.393C126.915 145 127.563 144.928 128.139 144.424C128.517 144.082 128.967 143.47 128.967 142.444C128.967 141.67 128.715 141.13 128.373 140.77C127.815 140.176 126.987 139.978 126.285 139.978H124.575V137.206H122.379ZM124.575 143.272V141.706H125.655C125.853 141.706 126.177 141.724 126.411 141.886C126.555 141.976 126.699 142.156 126.699 142.444C126.699 142.75 126.555 142.948 126.411 143.074C126.177 143.272 125.835 143.272 125.601 143.272H124.575ZM129.795 137.206V145H131.991V137.206H129.795ZM134.086 137.206V145H136.282L139.882 140.194V145H142.078V137.206H139.882L136.282 142.012V137.206H134.086ZM139.594 133.3C139.396 134.074 138.73 134.434 138.082 134.434C137.308 134.434 136.714 133.948 136.57 133.3L135.13 133.984C135.652 135.478 137.128 135.838 138.082 135.838C139.036 135.838 140.512 135.478 141.034 133.984L139.594 133.3ZM75.1276 158.954C73.6336 158.954 72.6436 159.422 71.9776 160.052C71.2036 160.754 70.6636 161.816 70.6636 163.112C70.6636 164.39 71.2036 165.452 71.9776 166.154C72.6436 166.784 73.6336 167.252 75.1276 167.252C76.6216 167.252 77.6116 166.784 78.2776 166.154C79.0516 165.452 79.5916 164.39 79.5916 163.112C79.5916 161.816 79.0516 160.754 78.2776 160.052C77.6116 159.422 76.6216 158.954 75.1276 158.954ZM75.1276 165.308C73.8496 165.308 72.9316 164.3 72.9316 163.112C72.9316 161.888 73.8676 160.898 75.1276 160.898C76.3876 160.898 77.3236 161.888 77.3236 163.112C77.3236 164.3 76.4056 165.308 75.1276 165.308ZM87.1581 159.422C86.5281 159.116 85.8621 158.954 85.0521 158.954C84.2781 158.954 83.1981 159.116 82.2441 159.962C81.4521 160.664 80.8941 161.762 80.8941 163.13C80.8941 164.588 81.5421 165.56 82.1361 166.118C82.8381 166.784 83.9181 167.252 85.1421 167.252C86.0601 167.252 86.7261 166.982 87.1581 166.766V164.624C86.5641 165.182 85.9161 165.308 85.4301 165.308C84.1161 165.308 83.1621 164.39 83.1621 163.094C83.1621 161.942 83.9001 160.898 85.3581 160.898C86.1321 160.898 86.6721 161.15 87.1581 161.582V159.422ZM87.9855 167H90.1815L90.8295 162.77L92.7735 167H93.5655L95.5095 162.77L96.1575 167H98.3535L96.9315 159.206H95.3115L93.1695 163.688L91.0275 159.206H89.4075L87.9855 167ZM103.868 158.954C102.374 158.954 101.384 159.422 100.718 160.052C99.9439 160.754 99.4039 161.816 99.4039 163.112C99.4039 164.39 99.9439 165.452 100.718 166.154C101.384 166.784 102.374 167.252 103.868 167.252C105.362 167.252 106.352 166.784 107.018 166.154C107.792 165.452 108.332 164.39 108.332 163.112C108.332 161.816 107.792 160.754 107.018 160.052C106.352 159.422 105.362 158.954 103.868 158.954ZM103.868 165.308C102.59 165.308 101.672 164.3 101.672 163.112C101.672 161.888 102.608 160.898 103.868 160.898C105.128 160.898 106.064 161.888 106.064 163.112C106.064 164.3 105.146 165.308 103.868 165.308ZM115.61 161.078V159.206H109.094V161.078H111.254V167H113.45V161.078H115.61ZM118.959 165.992C119.823 167.144 120.921 167.252 121.461 167.252C122.613 167.252 123.513 166.802 124.107 166.244C124.557 165.794 125.331 164.876 125.331 163.094C125.331 161.528 124.737 160.574 124.161 159.998C123.279 159.116 122.163 158.954 121.497 158.954C120.057 158.954 119.301 159.728 118.959 160.214V159.206H116.763V171.122H118.959V165.992ZM120.903 160.898C121.425 160.898 121.983 161.096 122.397 161.456C122.829 161.87 123.063 162.518 123.063 163.094C123.063 163.67 122.865 164.318 122.379 164.75C122.091 165.02 121.623 165.308 120.903 165.308C120.201 165.308 119.751 165.056 119.463 164.786C119.031 164.408 118.743 163.814 118.743 163.094C118.743 162.392 118.995 161.834 119.481 161.42C119.859 161.078 120.345 160.898 120.903 160.898Z" fill="#333333"/>
<path d="M123.866 68.7227C123.866 72.064 121.157 74.7731 117.815 74.7731C114.474 74.7731 111.765 72.064 111.765 68.7227C111.765 65.3813 114.474 62.6722 117.815 62.6722C121.157 62.6722 123.866 65.3813 123.866 68.7227Z" fill="#89CEEA"/>
<path d="M117.815 62.6722C117.013 62.6722 116.247 62.83 115.546 63.1136C117.763 64.0117 119.328 66.1837 119.328 68.7227C119.328 71.2616 117.763 73.4336 115.546 74.3317C116.247 74.6153 117.013 74.7731 117.815 74.7731C121.156 74.7731 123.866 72.064 123.866 68.7227C123.866 65.3813 121.156 62.6722 117.815 62.6722Z" fill="#78C0DE"/>
<path d="M108.437 90.0581V106.311H72.1345V90.0581C72.1345 84.452 75.9538 79.7423 81.1256 78.4051C81.5747 78.2881 82.0343 78.1977 82.5017 78.1339C83.0341 78.0613 83.5759 78.0234 84.1278 78.0234H96.4437C96.9955 78.0234 97.5374 78.0613 98.0697 78.1339C98.5412 78.1977 99.0027 78.2899 99.4553 78.4081C104.622 79.7464 108.437 84.4556 108.437 90.0581Z" fill="#E8E1D5"/>
<path d="M99.4553 78.4081C99.0027 78.2899 98.5413 78.1977 98.0697 78.1339C97.5374 78.0613 96.9956 78.0234 96.4437 78.0234H91.9059C92.4577 78.0234 92.9996 78.0613 93.5319 78.1339C94.0034 78.1977 94.4649 78.2899 94.9175 78.4081C100.085 79.7464 103.899 84.4556 103.899 90.0581V106.311H108.437V90.0581C108.437 84.4556 104.622 79.7464 99.4553 78.4081Z" fill="#D6CFC4"/>
<path d="M99.4553 78.4081L90.2905 106.311L81.1256 78.4051C81.5747 78.2881 82.0344 78.1977 82.5017 78.1339C83.0341 78.0613 83.5759 78.0234 84.1278 78.0234H96.4437C96.9956 78.0234 97.5374 78.0613 98.0697 78.1339C98.5412 78.1977 99.0027 78.2899 99.4553 78.4081Z" fill="#FF573D"/>
<path d="M97.1302 78.0229C97.6762 78.0229 98.0756 78.5375 97.9409 79.0669C97.2691 81.7069 94.0968 83.707 90.2857 83.707C86.4746 83.707 83.3023 81.7069 82.6305 79.0669C82.4958 78.5375 82.8952 78.0229 83.4412 78.0229H85.7898V69.1871H94.7816V78.0229H97.1302Z" fill="#EBA28C"/>
<path d="M90.2857 106.311C90.3318 105.919 86.4203 81.1864 85.7632 77.035C85.7112 76.7088 85.407 76.4849 85.0796 76.5322L78.7976 77.4338C78.5151 77.4746 78.2995 77.7068 78.28 77.9916L77.7198 86.2016L80.3604 87.8082L79.6242 91.6476L90.2857 106.311Z" fill="#C4BEB4"/>
<path d="M90.2863 106.311C90.2402 105.919 94.1511 81.1864 94.8087 77.035C94.8602 76.7088 95.165 76.4849 95.4924 76.5322L101.774 77.4338C102.057 77.4746 102.273 77.7068 102.292 77.9916L102.852 86.2016L100.212 87.8082L100.947 91.6476L90.2863 106.311Z" fill="#C4BEB4"/>
<path d="M79.2437 54.353C79.2437 56.6083 77.6046 58.437 75.5833 58.437C73.562 58.437 72.2857 56.3418 72.2857 54.0865C72.2857 51.4246 73.562 50.2689 75.5833 50.2689C77.6046 50.2689 79.2437 52.0976 79.2437 54.353Z" fill="#EBA28C"/>
<path d="M101.328 54.353C101.328 56.6083 102.967 58.437 104.988 58.437C107.009 58.437 108.286 56.3418 108.286 54.0865C108.286 51.4246 107.009 50.2689 104.988 50.2689C102.967 50.2689 101.328 52.0976 101.328 54.353Z" fill="#EBA28C"/>
<path d="M76.9748 59.6081V49.7596C76.9748 42.8282 82.5939 37.2091 89.5253 37.2091H91.0462C97.9776 37.2091 103.597 42.8282 103.597 49.7596V59.6081C103.597 66.9531 97.6425 72.9066 90.2981 72.9066H90.2733C82.9289 72.9066 76.9748 66.9531 76.9748 59.6081Z" fill="#FCC19C"/>
<path d="M91.0461 37.2091H89.5253C89.0142 37.2091 88.5113 37.2434 88.0168 37.3025C94.2362 38.0481 99.0588 43.3393 99.0588 49.7596V59.6081C99.0588 66.1838 94.2864 71.6433 88.0168 72.7151C88.75 72.841 89.504 72.9066 90.2733 72.9066H90.2981C97.6425 72.9066 103.597 66.9531 103.597 59.6081V49.7596C103.597 42.8282 97.9775 37.2091 91.0461 37.2091Z" fill="#EBA28C"/>
<path d="M76.9748 54.2389C76.9748 54.3352 77.0622 54.4067 77.1568 54.3872C77.7618 54.2596 79.6791 53.7367 79.8487 52.2099C80.0502 50.3948 83.489 45.2519 88.9297 44.7479C92.8914 44.3804 94.8164 42.3023 95.5704 41.1998C95.721 40.9794 96.0602 41.0432 96.1163 41.3038C96.4165 42.7035 97.2336 45.6242 99.0629 47.2691C101.481 49.4435 100.753 54.2271 103.431 54.4156C103.52 54.4215 103.597 54.3535 103.597 54.2643V50.4852C103.597 50.0846 103.922 49.7596 104.322 49.7596H104.388C104.725 49.7596 105.017 49.5303 105.094 49.203C105.423 47.8168 106.124 44.111 105.07 41.2181C103.748 37.5878 100.044 36.0752 100.044 36.0752C100.044 36.0752 98.787 31.1345 91.0828 31.1345C83.3779 31.1345 80.3563 34.3789 80.3563 34.3789C80.3563 34.3789 74.5044 39.3959 75.0084 43.786C75.3469 46.7367 75.4763 48.6612 75.5242 49.606C75.5443 49.9918 75.8628 50.2943 76.2492 50.2943C76.6498 50.2943 76.9748 50.6193 76.9748 51.0199V54.2389Z" fill="#633327"/>
<path d="M105.07 41.2187C103.748 37.5884 100.044 36.0752 100.044 36.0752C100.044 36.0752 98.787 31.1345 91.0828 31.1345C90.1787 31.1345 89.3421 31.1805 88.5645 31.2591C94.4755 32.0267 95.506 36.0752 95.506 36.0752C95.506 36.0752 99.2101 37.5884 100.532 41.2187C101.587 44.111 100.885 47.8168 100.556 49.2036C100.536 49.2893 100.5 49.3684 100.453 49.4382C101.334 51.6758 101.47 54.2779 103.431 54.4156C103.52 54.4215 103.597 54.3535 103.597 54.2643V50.4852C103.597 50.0846 103.922 49.7596 104.322 49.7596H104.388C104.724 49.7596 105.016 49.5303 105.094 49.203C105.423 47.8168 106.124 44.111 105.07 41.2187Z" fill="#572D22"/>
<path d="M84.3918 44.7479C80.3551 45.1219 77.4226 48.049 76.0944 50.2766C76.144 50.2872 76.196 50.2943 76.2492 50.2943C76.6498 50.2943 76.9747 50.6193 76.9747 51.0199V54.2389C76.9747 54.3352 77.0622 54.4067 77.1567 54.3872C77.7618 54.2596 79.6791 53.7367 79.8487 52.2105C80.0502 50.3954 83.489 45.2525 88.9296 44.7479C90.2993 44.6209 91.4254 44.2894 92.3436 43.8646C89.8573 44.2185 88.3536 44.381 84.3918 44.7479Z" fill="#572D22"/>
<path d="M88.0888 56.1987C88.0888 58.2869 86.396 59.9803 84.3073 59.9803C82.2186 59.9803 80.5258 58.2869 80.5258 56.1987C80.5258 54.1101 82.2186 52.4172 84.3073 52.4172C86.396 52.4172 88.0888 54.1101 88.0888 56.1987Z" fill="#CEE8F2"/>
<path d="M100.046 56.1987C100.046 58.2869 98.3528 59.9803 96.2641 59.9803C94.1754 59.9803 92.4825 58.2869 92.4825 56.1987C92.4825 54.1101 94.1754 52.4172 96.2641 52.4172C98.3528 52.4172 100.046 54.1101 100.046 56.1987Z" fill="#CEE8F2"/>
<path d="M125 68.7227C125 64.761 121.777 61.5378 117.815 61.5378C113.853 61.5378 110.63 64.761 110.63 68.7227C110.63 72.2986 113.256 75.2718 116.681 75.8172V77.2707C116.681 81.8351 113.398 85.6455 109.07 86.4704C108.199 83.3985 106.23 80.7012 103.494 78.9505L103.424 77.9141C103.368 77.1011 102.742 76.4269 101.936 76.3105L99.941 76.0246C103.873 73.9684 106.563 69.8518 106.563 65.1161V59.24C108.266 58.4872 109.42 56.5196 109.42 54.0865C109.42 51.4418 108.279 49.7454 106.243 49.2709C106.618 47.6136 107.244 43.8699 106.136 40.8299C104.943 37.5548 102.093 35.8288 100.952 35.2492C100.349 33.7986 98.0993 30 91.0828 30C83.4317 30 80.0496 33.0819 79.5793 33.5511C79.0032 34.0533 73.3315 39.1318 73.8816 43.9154C74.1765 46.4833 74.31 48.2629 74.3691 49.2615C72.3076 49.7224 71.1513 51.424 71.1513 54.0865C71.1513 56.5368 72.3212 58.5138 74.0423 59.2553V65.1161C74.0423 69.8489 76.7302 73.963 80.6576 76.0204L78.6363 76.3105C77.8292 76.4269 77.2035 77.1011 77.1479 77.9141L77.0776 78.9505C73.3144 81.3583 71 85.5575 71 90.0581V97.7647C71 98.391 71.5081 98.8992 72.1345 98.8992C72.7608 98.8992 73.2689 98.391 73.2689 97.7647V90.0581C73.2689 86.9401 74.6102 83.997 76.8726 81.9515L76.5878 86.1241C76.5588 86.5472 76.768 86.9508 77.1296 87.1706L79.0978 88.3676L78.5098 91.4342C78.4508 91.7421 78.5223 92.0611 78.7066 92.3146L88.0582 105.176H73.2689V102.586C73.2689 101.96 72.7608 101.452 72.1345 101.452C71.5081 101.452 71 101.96 71 102.586V106.311C71 106.937 71.5081 107.445 72.1345 107.445H108.437C109.063 107.445 109.571 106.937 109.571 106.311V90.0581C109.571 89.6008 109.547 89.147 109.5 88.6979C114.874 87.6716 118.95 82.9394 118.95 77.2707V75.8172C122.374 75.2718 125 72.2986 125 68.7227ZM106.75 86.6382H103.897C103.964 86.4781 103.997 86.3038 103.984 86.1241L103.699 81.9521C105.107 83.2248 106.157 84.8443 106.75 86.6382ZM101.673 85.5906L100.011 86.6022C98.0319 86.4349 96.2256 85.6509 94.7875 84.442C94.8489 84.0502 95.5574 79.562 95.8475 77.7286L101.189 78.4961L101.673 85.5906ZM90.2739 74.041H90.2975C91.4503 74.041 92.5718 73.9045 93.6465 73.6481V75.1513H86.9249V73.6481C87.9997 73.9045 89.1211 74.041 90.2739 74.041ZM86.9728 77.4202H89.1725C89.1962 79.2719 89.6547 81.0203 90.45 82.5683C90.395 82.5695 90.3407 82.5719 90.2857 82.5719C89.4071 82.5719 88.5362 82.4484 87.7308 82.2156C87.4933 80.713 87.241 79.1171 86.9728 77.4202ZM92.8436 82.1991C91.9785 80.8058 91.4692 79.1709 91.4414 77.4202H93.5993C93.3316 79.1106 93.0799 80.7012 92.8436 82.1991ZM90.2857 84.8408C90.8293 84.8408 91.3629 84.8042 91.8852 84.7327C92.0382 84.9152 92.1972 85.0913 92.3602 85.2639C91.4225 91.2186 90.7572 95.4834 90.2863 98.5429C89.7988 95.3776 89.1034 90.9214 88.1131 84.6387C88.8162 84.7717 89.5418 84.8408 90.2857 84.8408ZM95.9154 75.0124V72.903C100.037 71.1547 103.183 67.5445 104.294 63.1337V65.1161C104.294 70.0852 100.664 74.2201 95.9154 75.0124ZM107.151 54.0865C107.151 55.6676 106.342 57.3025 104.988 57.3025C104.902 57.3025 104.816 57.2966 104.731 57.2866V51.4193C104.816 51.4093 104.902 51.4034 104.988 51.4034C106.058 51.4034 107.151 51.7224 107.151 54.0865ZM81.0949 35.2403C81.1268 35.2132 81.1575 35.1836 81.1865 35.1523C81.213 35.1234 83.9546 32.2689 91.0828 32.2689C97.7323 32.2689 98.9005 36.1993 98.9442 36.3553C99.0263 36.7116 99.2739 36.984 99.6113 37.1246C99.6438 37.1376 102.877 38.5125 104.004 41.6069C104.897 44.0554 104.345 47.3223 104.058 48.644C103.157 48.7728 102.462 49.5492 102.462 50.4852V51.9464C102.349 51.6297 102.233 51.2545 102.103 50.8184C101.656 49.3194 101.149 47.6195 99.821 46.4254C98.2038 44.9707 97.467 42.193 97.2254 41.0657C97.1048 40.5043 96.6629 40.0695 96.0998 39.9584C95.5349 39.8473 94.9594 40.083 94.6339 40.5593C93.9467 41.5643 92.2787 43.2979 88.8251 43.6182C88.7767 43.6229 88.7282 43.6276 88.6803 43.6329C88.057 43.6997 87.6062 44.2587 87.6729 44.8814C87.7397 45.5048 88.2998 45.9544 88.9214 45.8889C88.9592 45.8847 88.9965 45.8812 89.0343 45.8776C92.1853 45.5852 94.1996 44.313 95.4209 43.1254C95.9273 44.7597 96.8118 46.7698 98.3043 48.1123C99.1575 48.8798 99.5492 50.1951 99.9286 51.4672C100.373 52.9585 100.912 54.7612 102.462 55.355V59.6075C102.462 66.3155 97.0056 71.7721 90.2975 71.7721H90.2739C83.5658 71.7721 78.1092 66.3155 78.1092 59.6075V55.306C78.7279 55.1057 79.2614 54.8304 79.6969 54.4936C79.4995 55.0253 79.3914 55.5997 79.3914 56.1988C79.3914 58.9091 81.5965 61.1148 84.3074 61.1148C86.6277 61.1148 88.5758 59.4982 89.0898 57.3332H91.4816C91.9951 59.4982 93.9437 61.1148 96.264 61.1148C98.9743 61.1148 101.18 58.9091 101.18 56.1988C101.18 53.4879 98.9743 51.2828 96.264 51.2828C93.9437 51.2828 91.9951 52.8988 91.4816 55.0643H89.0898C88.5758 52.8988 86.6277 51.2828 84.3074 51.2828C82.9986 51.2828 81.8086 51.7981 80.9265 52.6347C80.9477 52.5366 80.9649 52.4368 80.9761 52.3351C81.073 51.4648 82.5141 48.998 84.9236 47.3849C85.4442 47.0363 85.5836 46.3314 85.2356 45.8109C84.887 45.2903 84.1821 45.1509 83.6616 45.4995C80.8532 47.379 78.9105 50.3812 78.7214 52.0846C78.6871 52.3895 78.4342 52.6394 78.1092 52.8327V51.0193C78.1092 51.0175 78.1092 51.0163 78.1092 51.0152C78.1075 50.4828 77.8812 50.0036 77.5202 49.665C77.5077 49.6526 77.4947 49.6402 77.4817 49.6278C77.4717 49.619 77.4611 49.6107 77.451 49.6024C77.4345 49.5882 77.4173 49.5741 77.3996 49.5611C77.1804 49.3873 76.9216 49.2609 76.6386 49.2006C76.5795 48.1855 76.443 46.335 76.1352 43.6566C75.7795 40.5563 79.5947 36.5296 81.0949 35.2403ZM81.6603 56.1988C81.6603 54.7394 82.848 53.5517 84.3074 53.5517C85.7668 53.5517 86.9544 54.7394 86.9544 56.1988C86.9544 57.6582 85.7668 58.8459 84.3074 58.8459C82.848 58.8459 81.6603 57.6582 81.6603 56.1988ZM93.617 56.1988C93.617 54.7394 94.8046 53.5517 96.264 53.5517C97.7235 53.5517 98.9111 54.7394 98.9111 56.1988C98.9111 57.6582 97.7235 58.8459 96.264 58.8459C94.8046 58.8459 93.617 57.6582 93.617 56.1988ZM75.5833 51.4034C75.6696 51.4034 75.7553 51.4105 75.8403 51.4205V57.2866C75.7553 57.2966 75.6696 57.3025 75.5833 57.3025C74.2291 57.3025 73.4202 55.6676 73.4202 54.0865C73.4202 51.7224 74.5139 51.4034 75.5833 51.4034ZM76.3113 65.1161V63.2696C77.4528 67.6184 80.5773 71.173 84.656 72.903V75.0059C79.925 74.1994 76.3113 70.0734 76.3113 65.1161ZM80.9495 86.8385L78.898 85.5906L79.3004 79.7021C79.301 79.695 79.3016 79.6885 79.3016 79.6814L79.3826 78.4955L84.7245 77.7286C85.0152 79.5668 87.8525 97.6229 88.5108 101.941L80.8308 91.3781L81.4742 88.0214C81.5634 87.5564 81.3543 87.0849 80.9495 86.8385ZM107.303 105.176H92.5139L97.4865 98.3367C97.8552 97.8303 97.743 97.1207 97.236 96.752C96.7296 96.3839 96.02 96.4961 95.6513 97.0025L92.0613 101.94C92.6072 98.3579 93.4504 92.9474 94.3892 86.972C95.8191 87.921 97.47 88.5609 99.2467 88.7996L99.7407 91.3781L98.5093 93.0715C98.1412 93.5785 98.2535 94.2881 98.7598 94.6562C99.2668 95.0249 99.9764 94.9126 100.345 94.4062L101.865 92.3152C102.05 92.0611 102.121 91.7426 102.062 91.4342L101.578 88.9071H107.24C107.281 89.287 107.302 89.6711 107.302 90.0581V105.176H107.303ZM117.815 73.6387C115.104 73.6387 112.899 71.4336 112.899 68.7227C112.899 66.0118 115.104 63.8067 117.815 63.8067C120.526 63.8067 122.731 66.0118 122.731 68.7227C122.731 71.4336 120.526 73.6387 117.815 73.6387Z" fill="black"/>
</svg>
