<svg width="193" height="201" viewBox="0 0 193 201" fill="none" xmlns="http://www.w3.org/2000/svg">
<rect x="0.5" y="0.5" width="192" height="200" rx="4.5" fill="white" stroke="#F3F3F3"/>
<path d="M37.0952 145H39.9032L42.6752 140.608L45.3032 145H48.1112L44.0072 138.664L47.6972 132.994H44.8892L42.6752 136.72L40.5692 132.994H37.7612L41.3432 138.664L37.0952 145ZM49.5088 137.206V145H51.7048L55.3048 140.194V145H57.5008V137.206H55.3048L51.7048 142.012V137.206H49.5088ZM61.7771 143.992C62.6411 145.144 63.7391 145.252 64.2791 145.252C65.4311 145.252 66.3311 144.802 66.9251 144.244C67.3751 143.794 68.1491 142.876 68.1491 141.094C68.1491 139.528 67.5551 138.574 66.9791 137.998C66.0971 137.116 64.9811 136.954 64.3151 136.954C62.8751 136.954 62.1191 137.728 61.7771 138.214V137.206H59.5811V149.122H61.7771V143.992ZM63.7211 138.898C64.2431 138.898 64.8011 139.096 65.2151 139.456C65.6471 139.87 65.8811 140.518 65.8811 141.094C65.8811 141.67 65.6831 142.318 65.1971 142.75C64.9091 143.02 64.4411 143.308 63.7211 143.308C63.0191 143.308 62.5691 143.056 62.2811 142.786C61.8491 142.408 61.5611 141.814 61.5611 141.094C61.5611 140.392 61.8131 139.834 62.2991 139.42C62.6771 139.078 63.1631 138.898 63.7211 138.898ZM69.6847 149.122H72.1687L74.9407 143.848L78.4507 137.206H75.9667L73.8067 141.634L71.3947 137.206H68.8387L72.5467 143.83L69.6847 149.122ZM81.7283 143.992C82.5923 145.144 83.6903 145.252 84.2303 145.252C85.3823 145.252 86.2823 144.802 86.8763 144.244C87.3263 143.794 88.1003 142.876 88.1003 141.094C88.1003 139.528 87.5063 138.574 86.9303 137.998C86.0483 137.116 84.9323 136.954 84.2663 136.954C82.8263 136.954 82.0703 137.728 81.7283 138.214V137.206H79.5323V149.122H81.7283V143.992ZM83.6723 138.898C84.1943 138.898 84.7523 139.096 85.1663 139.456C85.5983 139.87 85.8323 140.518 85.8323 141.094C85.8323 141.67 85.6343 142.318 85.1483 142.75C84.8603 143.02 84.3923 143.308 83.6723 143.308C82.9703 143.308 82.5203 143.056 82.2323 142.786C81.8003 142.408 81.5123 141.814 81.5123 141.094C81.5123 140.392 81.7643 139.834 82.2503 139.42C82.6283 139.078 83.1143 138.898 83.6723 138.898ZM89.7979 145H91.9939V139.078H94.7659V137.206H89.7979V145ZM95.9151 137.206V145H98.1111L101.711 140.194V145H103.907V137.206H101.711L98.1111 142.012V137.206H95.9151ZM110.415 145H112.611V137.206H110.415V140.536C110.001 140.608 109.695 140.644 109.281 140.644C108.993 140.644 108.471 140.644 108.165 140.356C107.895 140.086 107.895 139.78 107.895 139.51V137.206H105.699V139.96C105.699 140.536 105.771 141.202 106.401 141.796C107.103 142.444 107.985 142.516 108.579 142.516C109.227 142.516 109.857 142.462 110.415 142.336V145ZM120.34 142.498C119.98 143.128 119.368 143.524 118.522 143.524C117.676 143.524 117.19 143.128 116.956 142.786C116.686 142.444 116.578 141.958 116.578 141.472H122.41V141.292C122.41 140.41 122.302 139.258 121.474 138.232C120.916 137.584 120.016 136.954 118.432 136.954C117.496 136.954 116.416 137.17 115.498 138.052C114.94 138.61 114.31 139.546 114.31 141.112C114.31 142.336 114.67 143.344 115.534 144.154C116.308 144.892 117.244 145.252 118.522 145.252C121.258 145.252 122.122 143.398 122.356 142.822L120.34 142.498ZM116.65 140.068C116.848 139.006 117.676 138.502 118.486 138.502C119.296 138.502 120.142 138.988 120.34 140.068H116.65ZM129.978 137.422C129.348 137.116 128.682 136.954 127.872 136.954C127.098 136.954 126.018 137.116 125.064 137.962C124.272 138.664 123.714 139.762 123.714 141.13C123.714 142.588 124.362 143.56 124.956 144.118C125.658 144.784 126.738 145.252 127.962 145.252C128.88 145.252 129.546 144.982 129.978 144.766V142.624C129.384 143.182 128.736 143.308 128.25 143.308C126.936 143.308 125.982 142.39 125.982 141.094C125.982 139.942 126.72 138.898 128.178 138.898C128.952 138.898 129.492 139.15 129.978 139.582V137.422ZM131.634 137.206V145H133.83V142.102L134.154 141.778L136.854 145H139.662L135.954 140.68L139.482 137.206H136.746L133.83 140.23V137.206H131.634ZM144.526 136.954C143.032 136.954 142.042 137.422 141.376 138.052C140.602 138.754 140.062 139.816 140.062 141.112C140.062 142.39 140.602 143.452 141.376 144.154C142.042 144.784 143.032 145.252 144.526 145.252C146.02 145.252 147.01 144.784 147.676 144.154C148.45 143.452 148.99 142.39 148.99 141.112C148.99 139.816 148.45 138.754 147.676 138.052C147.01 137.422 146.02 136.954 144.526 136.954ZM144.526 143.308C143.248 143.308 142.33 142.3 142.33 141.112C142.33 139.888 143.266 138.898 144.526 138.898C145.786 138.898 146.722 139.888 146.722 141.112C146.722 142.3 145.804 143.308 144.526 143.308ZM156.323 142.498C155.963 143.128 155.351 143.524 154.505 143.524C153.659 143.524 153.173 143.128 152.939 142.786C152.669 142.444 152.561 141.958 152.561 141.472H158.393V141.292C158.393 140.41 158.285 139.258 157.457 138.232C156.899 137.584 155.999 136.954 154.415 136.954C153.479 136.954 152.399 137.17 151.481 138.052C150.923 138.61 150.293 139.546 150.293 141.112C150.293 142.336 150.653 143.344 151.517 144.154C152.291 144.892 153.227 145.252 154.505 145.252C157.241 145.252 158.105 143.398 158.339 142.822L156.323 142.498ZM152.633 140.068C152.831 139.006 153.659 138.502 154.469 138.502C155.279 138.502 156.125 138.988 156.323 140.068H152.633ZM39.5684 159.206V167H43.5824C43.9064 167 44.7164 166.964 45.3284 166.496C45.7064 166.208 46.1564 165.686 46.1564 164.768C46.1564 164.066 45.9044 163.616 45.5624 163.31C45.2564 163.04 44.9144 162.878 44.5364 162.806C45.2384 162.5 45.6164 161.87 45.6164 161.204C45.6164 160.556 45.3104 160.016 44.8604 159.674C44.2304 159.188 43.5284 159.206 43.0064 159.206H39.5684ZM41.7644 162.302V160.934H42.7364C42.9524 160.934 43.1864 160.934 43.3844 161.06C43.5104 161.15 43.6364 161.33 43.6364 161.618C43.6364 161.852 43.5464 162.032 43.3484 162.158C43.1144 162.302 42.8264 162.302 42.7724 162.302H41.7644ZM41.7644 165.272V163.706H42.8444C43.0424 163.706 43.3664 163.724 43.6004 163.886C43.7444 163.976 43.8884 164.156 43.8884 164.444C43.8884 164.75 43.7444 164.948 43.6004 165.074C43.3664 165.272 43.0244 165.272 42.7904 165.272H41.7644ZM46.9494 167H49.1454L49.7934 162.77L51.7374 167H52.5294L54.4734 162.77L55.1214 167H57.3174L55.8954 159.206H54.2754L52.1334 163.688L49.9914 159.206H48.3714L46.9494 167ZM64.2044 164.498C63.8444 165.128 63.2324 165.524 62.3864 165.524C61.5404 165.524 61.0544 165.128 60.8204 164.786C60.5504 164.444 60.4424 163.958 60.4424 163.472H66.2744V163.292C66.2744 162.41 66.1664 161.258 65.3384 160.232C64.7804 159.584 63.8804 158.954 62.2964 158.954C61.3604 158.954 60.2804 159.17 59.3624 160.052C58.8044 160.61 58.1744 161.546 58.1744 163.112C58.1744 164.336 58.5344 165.344 59.3984 166.154C60.1724 166.892 61.1084 167.252 62.3864 167.252C65.1224 167.252 65.9864 165.398 66.2204 164.822L64.2044 164.498ZM60.5144 162.068C60.7124 161.006 61.5404 160.502 62.3504 160.502C63.1604 160.502 64.0064 160.988 64.2044 162.068H60.5144ZM67.9747 167H79.6027V159.206H77.4067V165.128H74.8867V159.206H72.6907V165.128H70.1707V159.206H67.9747V167ZM87.6616 160.214C86.9416 159.062 85.7356 158.954 85.1596 158.954C82.8556 158.954 81.2896 160.79 81.2896 163.094C81.2896 165.398 82.8916 167.252 85.2676 167.252C85.8436 167.252 86.8696 167.126 87.6616 165.992V167H89.8576V159.206H87.6616V160.214ZM85.7176 160.898C86.9596 160.898 87.8776 161.87 87.8776 163.094C87.8776 164.336 86.9596 165.308 85.7176 165.308C84.4756 165.308 83.5576 164.336 83.5576 163.094C83.5576 161.87 84.4756 160.898 85.7176 160.898ZM97.5312 161.078V159.206H91.0152V161.078H93.1752V167H95.3712V161.078H97.5312ZM104.318 164.498C103.958 165.128 103.346 165.524 102.5 165.524C101.654 165.524 101.168 165.128 100.934 164.786C100.664 164.444 100.556 163.958 100.556 163.472H106.388V163.292C106.388 162.41 106.28 161.258 105.452 160.232C104.894 159.584 103.994 158.954 102.41 158.954C101.474 158.954 100.394 159.17 99.4756 160.052C98.9176 160.61 98.2876 161.546 98.2876 163.112C98.2876 164.336 98.6476 165.344 99.5116 166.154C100.286 166.892 101.222 167.252 102.5 167.252C105.236 167.252 106.1 165.398 106.334 164.822L104.318 164.498ZM100.628 162.068C100.826 161.006 101.654 160.502 102.464 160.502C103.274 160.502 104.12 160.988 104.318 162.068H100.628ZM115 159.206H108.7V163.796C108.7 164.102 108.664 164.498 108.43 164.786C108.286 164.984 108.016 165.164 107.53 165.164C107.404 165.164 107.314 165.146 107.188 165.128V167C107.386 167.054 107.602 167.072 107.836 167.072C109.096 167.072 109.798 166.424 109.942 166.244C110.572 165.524 110.68 164.588 110.68 163.94V161.078H112.804V167H115V159.206ZM117.088 159.206V167H121.102C121.624 167 122.272 166.928 122.848 166.424C123.226 166.082 123.676 165.47 123.676 164.444C123.676 163.67 123.424 163.13 123.082 162.77C122.524 162.176 121.696 161.978 120.994 161.978H119.284V159.206H117.088ZM119.284 165.272V163.706H120.364C120.562 163.706 120.886 163.724 121.12 163.886C121.264 163.976 121.408 164.156 121.408 164.444C121.408 164.75 121.264 164.948 121.12 165.074C120.886 165.272 120.544 165.272 120.31 165.272H119.284ZM131.27 159.422C130.64 159.116 129.974 158.954 129.164 158.954C128.39 158.954 127.31 159.116 126.356 159.962C125.564 160.664 125.006 161.762 125.006 163.13C125.006 164.588 125.654 165.56 126.248 166.118C126.95 166.784 128.03 167.252 129.254 167.252C130.172 167.252 130.838 166.982 131.27 166.766V164.624C130.676 165.182 130.028 165.308 129.542 165.308C128.228 165.308 127.274 164.39 127.274 163.094C127.274 161.942 128.012 160.898 129.47 160.898C130.244 160.898 130.784 161.15 131.27 161.582V159.422ZM138.928 161.078V159.206H132.412V161.078H134.572V167H136.768V161.078H138.928ZM140.08 159.206V167H144.094C144.418 167 145.228 166.964 145.84 166.496C146.218 166.208 146.668 165.686 146.668 164.768C146.668 164.066 146.416 163.616 146.074 163.31C145.768 163.04 145.426 162.878 145.048 162.806C145.75 162.5 146.128 161.87 146.128 161.204C146.128 160.556 145.822 160.016 145.372 159.674C144.742 159.188 144.04 159.206 143.518 159.206H140.08ZM142.276 162.302V160.934H143.248C143.464 160.934 143.698 160.934 143.896 161.06C144.022 161.15 144.148 161.33 144.148 161.618C144.148 161.852 144.058 162.032 143.86 162.158C143.626 162.302 143.338 162.302 143.284 162.302H142.276ZM142.276 165.272V163.706H143.356C143.554 163.706 143.878 163.724 144.112 163.886C144.256 163.976 144.4 164.156 144.4 164.444C144.4 164.75 144.256 164.948 144.112 165.074C143.878 165.272 143.536 165.272 143.302 165.272H142.276ZM152.357 158.954C150.863 158.954 149.873 159.422 149.207 160.052C148.433 160.754 147.893 161.816 147.893 163.112C147.893 164.39 148.433 165.452 149.207 166.154C149.873 166.784 150.863 167.252 152.357 167.252C153.851 167.252 154.841 166.784 155.507 166.154C156.281 165.452 156.821 164.39 156.821 163.112C156.821 161.816 156.281 160.754 155.507 160.052C154.841 159.422 153.851 158.954 152.357 158.954ZM152.357 165.308C151.079 165.308 150.161 164.3 150.161 163.112C150.161 161.888 151.097 160.898 152.357 160.898C153.617 160.898 154.553 161.888 154.553 163.112C154.553 164.3 153.635 165.308 152.357 165.308Z" fill="#333333"/>
<path d="M90.8571 55.7142V52.378C90.8572 51.8125 90.9815 51.254 91.2213 50.742C91.4612 50.2299 91.8107 49.7769 92.2451 49.4149L97.7838 44.7992C98.2927 44.3751 98.9342 44.1428 99.5966 44.1428C99.9685 44.1428 100.337 44.216 100.68 44.3583C101.024 44.5006 101.336 44.7092 101.599 44.9722C101.862 45.2351 102.071 45.5473 102.213 45.8909C102.355 46.2345 102.429 46.6027 102.429 46.9746V52.032C102.429 52.7918 102.279 53.5441 101.988 54.2461C101.697 54.948 101.271 55.5858 100.734 56.1231L98.5714 58.2857V63.8142C98.5715 64.4709 98.3886 65.1145 98.0434 65.6731C97.6982 66.2317 97.2043 66.6831 96.617 66.9768L93.4286 68.5714H90.8571V55.7142Z" fill="#E08122"/>
<path d="M72.8572 55.7142V52.378C72.8571 51.8125 72.7328 51.254 72.493 50.742C72.2531 50.2299 71.9036 49.7769 71.4692 49.4149L65.9304 44.7992C65.4215 44.3751 64.7801 44.1429 64.1177 44.1428C63.7458 44.1428 63.3775 44.216 63.034 44.3583C62.6904 44.5006 62.3782 44.7092 62.1152 44.9722C61.8522 45.2351 61.6436 45.5473 61.5013 45.8909C61.359 46.2345 61.2857 46.6027 61.2857 46.9746V52.032C61.2857 52.7918 61.4354 53.5441 61.7261 54.2461C62.0169 54.948 62.4431 55.5858 62.9803 56.1231L65.1429 58.2857V63.8142C65.1429 64.4709 65.3257 65.1145 65.6709 65.6731C66.0161 66.2317 66.51 66.6831 67.0973 66.9768L70.2857 68.5714H72.8572V55.7142Z" fill="#E08122"/>
<path d="M92.1419 61.2858C91.9032 61.2856 91.6693 61.219 91.4663 61.0934C91.2633 60.9678 91.0993 60.7881 90.9927 60.5746C90.886 60.3611 90.8409 60.1221 90.8624 59.8843C90.8838 59.6466 90.9711 59.4196 91.1143 59.2286L96 52.7142V50.5714C96 50.2304 96.1355 49.9034 96.3766 49.6623C96.6177 49.4212 96.9447 49.2857 97.2857 49.2857C97.6267 49.2857 97.9537 49.4212 98.1949 49.6623C98.436 49.9034 98.5714 50.2304 98.5714 50.5714V53.1428C98.5714 53.421 98.4812 53.6917 98.3143 53.9143L93.1714 60.7713C93.0517 60.9313 92.8963 61.0611 92.7176 61.1504C92.5388 61.2397 92.3417 61.2861 92.1419 61.2858Z" fill="#BF6E1D"/>
<path d="M71.5724 61.2858C71.3726 61.2861 71.1755 61.2397 70.9968 61.1504C70.8181 61.0612 70.6626 60.9314 70.5429 60.7715L65.4 53.9143C65.2331 53.6917 65.1429 53.421 65.1429 53.1428V50.5714C65.1429 50.2304 65.2783 49.9034 65.5195 49.6623C65.7606 49.4212 66.0876 49.2857 66.4286 49.2857C66.7696 49.2857 67.0966 49.4212 67.3377 49.6623C67.5789 49.9034 67.7143 50.2304 67.7143 50.5714V52.7142L72.6 59.2286C72.7432 59.4196 72.8305 59.6466 72.8519 59.8843C72.8734 60.1221 72.8283 60.3611 72.7216 60.5746C72.615 60.7881 72.451 60.9678 72.248 61.0934C72.045 61.219 71.8111 61.2856 71.5724 61.2858Z" fill="#BF6E1D"/>
<path d="M93.3771 99.7886L92.1429 100.714L92.8243 100.941L94.2418 101.413C94.7536 101.584 95.1988 101.912 95.5143 102.35C95.8298 102.788 95.9997 103.313 96 103.853V105.857H67.7143V103.589C67.7143 103.112 67.8471 102.644 68.0981 102.238C68.349 101.832 68.708 101.503 69.135 101.29L70.2857 100.714L67.9345 98.3631C66.9705 97.3988 66.4288 96.0912 66.4286 94.7277V90.2084C66.4286 89.8705 66.4952 89.536 66.6245 89.2238C66.7538 88.9117 66.9434 88.628 67.1823 88.3891L70.2857 85.2857L72.8572 78.8572H90.8571L93.4286 85.2857L96.532 88.3891C96.7709 88.628 96.9605 88.9117 97.0898 89.2238C97.2191 89.536 97.2857 89.8705 97.2857 90.2084V94.2857C97.2858 95.0842 97.1 95.8716 96.7429 96.5858C96.3858 97.2999 95.8674 97.9211 95.2286 98.4L93.3771 99.7886Z" fill="#FD9226"/>
<path d="M90.8572 78.8571H72.8572L70.2857 72.4286V60.2828C70.2858 59.004 70.7937 57.7777 71.6979 56.8735L71.7208 56.8507C72.4584 56.1131 73.4154 55.6346 74.4481 55.487L74.584 55.4676C79.4083 54.7785 84.306 54.7785 89.1303 55.4676L89.2662 55.487C90.2989 55.6346 91.2559 56.1131 91.9936 56.8507L92.0164 56.8735C92.9206 57.7777 93.4286 59.004 93.4286 60.2828V72.4286L90.8572 78.8571Z" fill="#FD9226"/>
<path d="M86.6698 82.7143C85.9804 82.7143 85.3018 82.5442 84.694 82.219C84.0862 81.8938 83.5681 81.4235 83.1856 80.85L81.8572 78.8572L80.5289 80.85C80.1464 81.4235 79.6283 81.8938 79.0205 82.219C78.4128 82.5442 77.7341 82.7143 77.0447 82.7143C76.4948 82.7143 75.9503 82.606 75.4422 82.3956C74.9342 82.1852 74.4726 81.8767 74.0837 81.4879C73.6948 81.0991 73.3864 80.6374 73.1759 80.1294C72.9655 79.6213 72.8572 79.0768 72.8572 78.5269V76.616C72.8572 75.5054 73.2983 74.4403 74.0836 73.6551C74.8689 72.8698 75.934 72.4286 77.0446 72.4286H86.6698C87.7803 72.4286 88.8454 72.8698 89.6307 73.6551C90.416 74.4403 90.8572 75.5054 90.8572 76.616V78.5269C90.8572 79.6375 90.416 80.7025 89.6307 81.4878C88.8454 82.2731 87.7803 82.7143 86.6698 82.7143Z" fill="#985713"/>
<path d="M74.1429 102V105.857H71.5714V102.304L70.4207 100.004C70.3321 99.825 70.2859 99.6281 70.2857 99.4285V92.9999C70.2857 92.659 70.4212 92.3319 70.6623 92.0908C70.9034 91.8497 71.2305 91.7142 71.5714 91.7142C71.9124 91.7142 72.2395 91.8497 72.4806 92.0908C72.7217 92.3319 72.8572 92.659 72.8572 92.9999V99.1248L74.0079 101.425C74.0965 101.603 74.1427 101.8 74.1429 102Z" fill="#E08122"/>
<path d="M80.5714 92.9999V99.4285C80.5712 99.6281 80.525 99.825 80.4364 100.004L79.2857 102.304V105.857H76.7143V102C76.7145 101.8 76.7606 101.603 76.8493 101.425L78 99.1248V92.9999C78 92.659 78.1354 92.3319 78.3766 92.0908C78.6177 91.8497 78.9447 91.7142 79.2857 91.7142C79.6267 91.7142 79.9537 91.8497 80.1948 92.0908C80.4359 92.3319 80.5714 92.659 80.5714 92.9999Z" fill="#E08122"/>
<path d="M93.4286 92.9999V99.4285C93.4281 99.6281 93.3819 99.8249 93.2936 100.004L92.8243 100.941L92.1428 102.304V105.857H89.5714V102C89.5716 101.8 89.6178 101.603 89.7064 101.425L90.8571 99.1248V92.9999C90.8571 92.659 90.9926 92.3319 91.2337 92.0908C91.4748 91.8497 91.8018 91.7142 92.1428 91.7142C92.4838 91.7142 92.8109 91.8497 93.052 92.0908C93.2931 92.3319 93.4286 92.659 93.4286 92.9999Z" fill="#E08122"/>
<path d="M87 102V105.857H84.4286V102.304L83.2779 100.004C83.1892 99.825 83.143 99.6281 83.1429 99.4285V92.9999C83.1429 92.659 83.2783 92.3319 83.5194 92.0908C83.7605 91.8497 84.0876 91.7142 84.4286 91.7142C84.7696 91.7142 85.0966 91.8497 85.3377 92.0908C85.5788 92.3319 85.7143 92.659 85.7143 92.9999V99.1248L86.865 101.425C86.9536 101.603 86.9998 101.8 87 102Z" fill="#E08122"/>
<path d="M81.8572 77.5714C83.2773 77.5714 84.4286 76.4202 84.4286 75C84.4286 73.5799 83.2773 72.4286 81.8572 72.4286C80.437 72.4286 79.2857 73.5799 79.2857 75C79.2857 76.4202 80.437 77.5714 81.8572 77.5714Z" fill="#70400E"/>
<path d="M76.7143 67.7679C77.6907 67.7679 78.4822 66.9764 78.4822 66C78.4822 65.0237 77.6907 64.2322 76.7143 64.2322C75.7379 64.2322 74.9464 65.0237 74.9464 66C74.9464 66.9764 75.7379 67.7679 76.7143 67.7679Z" fill="#985713"/>
<path d="M87.4822 67.7679C88.4585 67.7679 89.25 66.9764 89.25 66C89.25 65.0237 88.4585 64.2322 87.4822 64.2322C86.5058 64.2322 85.7143 65.0237 85.7143 66C85.7143 66.9764 86.5058 67.7679 87.4822 67.7679Z" fill="#985713"/>
<path d="M112.714 77.5714V102C112.714 103.364 112.172 104.672 111.208 105.636C110.243 106.601 108.935 107.143 107.571 107.143C106.207 107.143 104.899 106.601 103.935 105.636C102.97 104.672 102.429 103.364 102.429 102V96.5356C102.429 96.2799 102.327 96.0346 102.146 95.8538C101.965 95.6729 101.72 95.5714 101.464 95.5714H92.1429C91.8019 95.5714 91.4748 95.4359 91.2337 95.1948C90.9926 94.9537 90.8571 94.6266 90.8571 94.2856C90.8571 93.9446 90.9926 93.6176 91.2337 93.3765C91.4748 93.1354 91.8019 92.9999 92.1429 92.9999H101.464C102.402 93.001 103.3 93.3739 103.963 94.0367C104.626 94.6996 104.999 95.5982 105 96.5356V102C105 102.682 105.271 103.336 105.753 103.818C106.235 104.3 106.889 104.571 107.571 104.571C108.253 104.571 108.907 104.3 109.39 103.818C109.872 103.336 110.143 102.682 110.143 102V77.5714C110.143 77.2304 110.278 76.9033 110.519 76.6622C110.761 76.4211 111.088 76.2856 111.429 76.2856C111.77 76.2856 112.097 76.4211 112.338 76.6622C112.579 76.9033 112.714 77.2304 112.714 77.5714Z" fill="#DBDBDB"/>
<path d="M111.429 55.7142C110.705 55.7138 109.99 55.5609 109.329 55.2656C108.669 54.9703 108.078 54.5392 107.596 54.0004C107.483 53.8746 107.396 53.7278 107.34 53.5685C107.284 53.4092 107.26 53.2404 107.27 53.0718C107.289 52.7313 107.442 52.4123 107.696 52.1849C107.95 51.9575 108.284 51.8403 108.625 51.8591C108.793 51.8685 108.958 51.9109 109.11 51.9841C109.263 52.0572 109.399 52.1596 109.512 52.2854C109.797 52.6052 110.159 52.8483 110.563 52.9927C110.967 53.1371 111.4 53.1782 111.824 53.1122C112.248 53.0462 112.649 52.8752 112.989 52.6148C113.33 52.3545 113.601 52.013 113.776 51.6214C113.951 51.2298 114.025 50.8007 113.992 50.373C113.959 49.9454 113.82 49.5328 113.586 49.1728C113.353 48.8129 113.033 48.517 112.656 48.3122C112.28 48.1073 111.858 48 111.429 48C111.088 48 110.761 47.8645 110.519 47.6234C110.278 47.3823 110.143 47.0552 110.143 46.7143V35.1428C110.143 34.8018 110.278 34.4748 110.519 34.2337C110.761 33.9926 111.088 33.8571 111.429 33.8571C111.77 33.8571 112.097 33.9926 112.338 34.2337C112.579 34.4748 112.714 34.8018 112.714 35.1428V45.5912C113.927 45.9036 114.984 46.6477 115.687 47.6839C116.39 48.7201 116.691 49.9772 116.533 51.2194C116.375 52.4616 115.77 53.6036 114.83 54.4311C113.89 55.2586 112.681 55.7149 111.429 55.7142Z" fill="#878787"/>
<path d="M126.857 36.4286H110.143C109.461 36.4286 108.807 36.1576 108.325 35.6754C107.842 35.1932 107.571 34.5391 107.571 33.8571C107.571 33.1751 107.842 32.5211 108.325 32.0389C108.807 31.5566 109.461 31.2857 110.143 31.2857H126.857V36.4286Z" fill="#CBCBCB"/>
<path d="M121.714 36.4286H126.857V100.714H121.714V36.4286Z" fill="#985713"/>
<path d="M130.714 105.857H117.857C117.857 104.671 118.15 103.503 118.71 102.456C119.27 101.41 120.079 100.519 121.066 99.8604L121.714 99.4286H126.857L127.505 99.8604C128.492 100.519 129.302 101.41 129.861 102.456C130.421 103.503 130.714 104.671 130.714 105.857Z" fill="#70400E"/>
<path d="M105 81.4286H107.571V84H105V81.4286Z" fill="#C0F5F9"/>
<path d="M105 86.5714H107.571V91.7143H105V86.5714Z" fill="#C0F5F9"/>
<path d="M83.1429 91.7142H93.4286V96.8571H83.1429V91.7142Z" fill="#6B9777"/>
<path d="M111.429 60.8571C111.088 60.8571 110.761 60.7216 110.519 60.4805C110.278 60.2394 110.143 59.9124 110.143 59.5714V54.4285C110.143 54.0875 110.278 53.7605 110.519 53.5194C110.761 53.2783 111.088 53.1428 111.429 53.1428C111.77 53.1428 112.097 53.2783 112.338 53.5194C112.579 53.7605 112.714 54.0875 112.714 54.4285V59.5714C112.714 59.9124 112.579 60.2394 112.338 60.4805C112.097 60.7216 111.77 60.8571 111.429 60.8571Z" fill="#CBCBCB"/>
<path d="M112.714 77.5714V78.6947C111.871 78.9112 110.986 78.9112 110.143 78.6947V77.5714C110.143 77.2304 110.278 76.9033 110.519 76.6622C110.761 76.4211 111.088 76.2856 111.429 76.2856C111.77 76.2856 112.097 76.4211 112.338 76.6622C112.579 76.9033 112.714 77.2304 112.714 77.5714Z" fill="#C3C3C3"/>
<path d="M121.714 36.4286H126.857V39H121.714V36.4286Z" fill="#70400E"/>
<path d="M93.4286 93H94.7143V95.5714H93.4286V93Z" fill="#C3C3C3"/>
<path d="M106.286 59.5714H116.571V72.4285C116.571 73.7925 116.03 75.1006 115.065 76.0651C114.101 77.0296 112.793 77.5714 111.429 77.5714C110.065 77.5714 108.756 77.0296 107.792 76.0651C106.828 75.1006 106.286 73.7925 106.286 72.4285V59.5714Z" fill="#EBEBEB"/>
<path d="M111.429 77.5714C110.065 77.5714 108.756 77.0295 107.792 76.0651C106.828 75.1006 106.286 73.7925 106.286 72.4285V64.7142H116.571V72.4285C116.571 73.7925 116.03 75.1006 115.065 76.0651C114.101 77.0295 112.793 77.5714 111.429 77.5714Z" fill="#C0F5F9"/>
<path d="M114 69.8571H112.714V68.5714H110.143V69.8571H108.857V72.4286H110.143V73.7143H112.714V72.4286H114V69.8571Z" fill="#85BC94"/>
<path d="M106.286 64.7142H116.571V65.9999H106.286V64.7142Z" fill="#B8EAEE"/>
<path d="M76.7143 67.7679C77.6907 67.7679 78.4822 66.9764 78.4822 66C78.4822 65.0237 77.6907 64.2322 76.7143 64.2322C75.7379 64.2322 74.9464 65.0237 74.9464 66C74.9464 66.9764 75.7379 67.7679 76.7143 67.7679Z" fill="black"/>
<path d="M87.4822 67.7679C88.4585 67.7679 89.25 66.9764 89.25 66C89.25 65.0237 88.4585 64.2322 87.4822 64.2322C86.5058 64.2322 85.7143 65.0237 85.7143 66C85.7143 66.9764 86.5058 67.7679 87.4822 67.7679Z" fill="black"/>
<path d="M63.8572 58.8181V63.8143C63.8543 64.7103 64.1025 65.5892 64.5735 66.3515C65.0445 67.1137 65.7196 67.7288 66.5223 68.127L69 69.366V72.4286C69 72.5921 69.0312 72.7542 69.092 72.906L71.4725 78.8571L69.1903 84.5625L66.2732 87.4799C65.9137 87.8374 65.6288 88.2626 65.4348 88.7309C65.2407 89.1993 65.1415 89.7014 65.1429 90.2084V94.7276C65.1406 95.572 65.3058 96.4084 65.6289 97.1885C65.952 97.9685 66.4267 98.6768 67.0253 99.2722L68.1378 100.385C67.6101 100.736 67.1777 101.212 66.8794 101.772C66.5812 102.331 66.4262 102.956 66.4286 103.589V105.857C66.4286 106.198 66.5641 106.525 66.8052 106.766C67.0463 107.007 67.3733 107.143 67.7143 107.143H96C96.341 107.143 96.668 107.007 96.9091 106.766C97.1503 106.525 97.2857 106.198 97.2857 105.857V103.853C97.2863 103.084 97.0566 102.332 96.6263 101.694C96.1959 101.057 95.5845 100.563 94.8708 100.275L96 99.4285C97.2549 98.4823 98.1215 97.1109 98.4376 95.5714H101.464C101.72 95.5717 101.965 95.6733 102.146 95.8541C102.327 96.0349 102.428 96.28 102.429 96.5357V102C102.429 103.364 102.97 104.672 103.935 105.637C104.899 106.601 106.207 107.143 107.571 107.143C108.935 107.143 110.244 106.601 111.208 105.637C112.172 104.672 112.714 103.364 112.714 102V78.7285C114.165 78.4303 115.469 77.6408 116.406 76.4932C117.343 75.3455 117.855 73.91 117.857 72.4286V59.5714C117.857 59.2304 117.722 58.9034 117.481 58.6623C117.239 58.4212 116.912 58.2857 116.571 58.2857H112.714V55.5515C113.819 55.2668 114.797 54.6231 115.496 53.7216C116.195 52.8201 116.574 51.7119 116.574 50.5713C116.574 49.4308 116.195 48.3226 115.496 47.4211C114.797 46.5195 113.819 45.8758 112.714 45.5912V37.7143H120.429V98.7405L120.353 98.7907C119.189 99.5651 118.234 100.616 117.574 101.849C116.915 103.082 116.57 104.459 116.571 105.857C116.571 106.198 116.707 106.525 116.948 106.766C117.189 107.007 117.516 107.143 117.857 107.143H130.714C131.055 107.143 131.382 107.007 131.623 106.766C131.865 106.525 132 106.198 132 105.857C132.001 104.459 131.657 103.082 130.997 101.849C130.337 100.616 129.382 99.565 128.218 98.7905L128.143 98.7404V31.2857C128.143 30.9447 128.007 30.6177 127.766 30.3766C127.525 30.1355 127.198 30 126.857 30H110.143C109.12 30 108.139 30.4064 107.415 31.1297C106.692 31.8531 106.286 32.8342 106.286 33.8571C106.286 34.8801 106.692 35.8612 107.415 36.5846C108.139 37.3079 109.12 37.7143 110.143 37.7143V46.7143C110.143 47.0553 110.278 47.3823 110.519 47.6234C110.761 47.8645 111.088 48 111.429 48C111.858 48 112.28 48.1073 112.656 48.3122C113.033 48.517 113.353 48.8129 113.586 49.1729C113.82 49.5328 113.959 49.9454 113.992 50.3731C114.025 50.8007 113.951 51.2299 113.776 51.6214C113.601 52.013 113.33 52.3545 112.989 52.6149C112.649 52.8753 112.248 53.0462 111.824 53.1122C111.4 53.1782 110.967 53.1372 110.563 52.9927C110.159 52.8483 109.797 52.6052 109.512 52.2854C109.399 52.1596 109.263 52.0572 109.111 51.9841C108.958 51.911 108.793 51.8685 108.625 51.8592C108.456 51.8498 108.287 51.8738 108.128 51.9297C107.969 51.9856 107.822 52.0723 107.696 52.1849C107.57 52.2975 107.468 52.4338 107.395 52.586C107.322 52.7382 107.279 52.9033 107.27 53.0718C107.26 53.2404 107.284 53.4092 107.34 53.5685C107.396 53.7279 107.483 53.8746 107.596 54.0004C108.273 54.7565 109.16 55.2954 110.143 55.5494V58.2857H106.286C105.945 58.2857 105.618 58.4212 105.377 58.6623C105.135 58.9034 105 59.2304 105 59.5714V72.4286C105.002 73.91 105.514 75.3455 106.451 76.4932C107.388 77.6408 108.692 78.4303 110.143 78.7285V102C110.143 102.682 109.872 103.336 109.39 103.818C108.907 104.3 108.253 104.571 107.571 104.571C106.889 104.571 106.235 104.3 105.753 103.818C105.271 103.336 105 102.682 105 102V96.5357C104.999 95.5983 104.626 94.6996 103.963 94.0367C103.3 93.3739 102.402 93.001 101.464 93H98.5714V90.2084C98.5728 89.7014 98.4736 89.1993 98.2796 88.7309C98.0856 88.2626 97.8006 87.8374 97.4411 87.4799L94.5243 84.5625L92.2422 78.8571L94.6227 72.906C94.6833 72.7541 94.7144 72.5921 94.7143 72.4286V69.366L97.1927 68.1267C97.9952 67.7284 98.6702 67.1134 99.1411 66.3512C99.612 65.589 99.8601 64.7102 99.8572 63.8143V58.8181L101.644 57.0321C102.302 56.3771 102.825 55.5979 103.18 54.7396C103.535 53.8814 103.717 52.9612 103.714 52.0323V46.9746C103.714 46.4339 103.608 45.8984 103.401 45.3989C103.194 44.8993 102.891 44.4453 102.508 44.063C102.126 43.6806 101.672 43.3773 101.173 43.1704C100.673 42.9635 100.138 42.8571 99.5968 42.8571C98.634 42.8586 97.7018 43.1959 96.9611 43.811L91.4234 48.4259C90.8429 48.9078 90.376 49.5118 90.0559 50.195C89.7358 50.8781 89.5703 51.6234 89.5714 52.3778V54.2357C89.5343 54.2298 89.4974 54.2227 89.4602 54.2175L89.3109 54.1947C84.3625 53.4891 79.3389 53.4898 74.3907 54.1966L74.2694 54.2151C74.2269 54.2212 74.185 54.229 74.1429 54.2359V52.3778C74.144 51.6236 73.9786 50.8784 73.6586 50.1954C73.3386 49.5124 72.8718 48.9084 72.2916 48.4265L66.7513 43.809C66.0108 43.195 65.0795 42.8584 64.1175 42.8571C63.5768 42.8571 63.0413 42.9635 62.5418 43.1704C62.0422 43.3773 61.5882 43.6806 61.2059 44.063C60.8235 44.4453 60.5202 44.8993 60.3133 45.3989C60.1064 45.8984 60 46.4339 60 46.9746V52.0323C59.9974 52.9612 60.179 53.8814 60.5344 54.7396C60.8898 55.5979 61.4119 56.3771 62.0705 57.0321L63.8572 58.8181ZM126.792 100.93C128.063 101.776 128.958 103.081 129.288 104.571H119.283C119.614 103.081 120.508 101.776 121.78 100.93L122.104 100.714H126.468L126.792 100.93ZM123 98.1428V37.7143H125.571V98.1428H123ZM110.143 35.1429C109.802 35.1429 109.475 35.0074 109.234 34.7663C108.993 34.5252 108.857 34.1981 108.857 33.8571C108.857 33.5161 108.993 33.1891 109.234 32.948C109.475 32.7069 109.802 32.5714 110.143 32.5714H125.571V35.1429H110.143ZM107.571 60.8571H115.286V63.4286H107.571V60.8571ZM107.571 72.4286V66H115.286V72.4286C115.286 73.4515 114.879 74.4326 114.156 75.156C113.433 75.8793 112.452 76.2857 111.429 76.2857C110.406 76.2857 109.425 75.8793 108.701 75.156C107.978 74.4326 107.571 73.4515 107.571 72.4286ZM71.5715 104.571H69V103.589C68.9991 103.351 69.0651 103.116 69.1906 102.913C69.3161 102.71 69.496 102.546 69.7099 102.44L70.8608 101.864C70.9947 101.797 71.1159 101.707 71.2188 101.598L71.5715 102.304V104.571ZM90.8572 99.1249L89.7072 101.425C89.6179 101.603 89.5714 101.8 89.5714 102V104.571H87V102C87 101.8 86.9535 101.603 86.8642 101.425L85.7143 99.1249V98.1428H90.8572V99.1249ZM90.8572 95.5714H85.7143V93H90.8572V95.5714ZM94.7143 104.571H92.1429V102.304L92.2432 102.103L93.8342 102.633C94.0904 102.718 94.3133 102.882 94.4713 103.101C94.6292 103.32 94.7143 103.583 94.7143 103.853V104.571ZM94.4572 97.3714L93.4286 98.1428V95.5714H95.7768C95.5234 96.2881 95.0644 96.9142 94.4572 97.3714ZM92.5194 86.1949L95.6228 89.2982C95.7428 89.4174 95.8379 89.5593 95.9026 89.7155C95.9674 89.8717 96.0005 90.0393 96 90.2084V93H93.4286V91.7143C93.4286 91.3733 93.2931 91.0462 93.052 90.8051C92.8109 90.564 92.4839 90.4285 92.1429 90.4285H84.4286C84.0876 90.4285 83.7606 90.564 83.5195 90.8051C83.2783 91.0462 83.1429 91.3733 83.1429 91.7143V99.4285C83.1429 99.6282 83.1894 99.8251 83.2787 100.004L84.4286 102.304V104.571H79.2857V102.304L80.4356 100.004C80.525 99.8251 80.5715 99.6282 80.5714 99.4285V93C80.5714 92.659 80.436 92.332 80.1949 92.0908C79.9538 91.8497 79.6267 91.7143 79.2857 91.7143C78.9447 91.7143 78.6177 91.8497 78.3766 92.0908C78.1355 92.332 78 92.659 78 93V99.1249L76.8501 101.425C76.7608 101.603 76.7143 101.8 76.7143 102V104.571H74.1429V102C74.1429 101.8 74.0964 101.603 74.0071 101.425L72.8572 99.1249V93C72.8572 92.659 72.7217 92.332 72.4806 92.0908C72.2395 91.8497 71.9124 91.7143 71.5715 91.7143C71.2305 91.7143 70.9034 91.8497 70.6623 92.0908C70.4212 92.332 70.2857 92.659 70.2857 93V98.8961L68.8436 97.4538C68.123 96.7292 67.7172 95.7496 67.7143 94.7276V90.2084C67.7138 90.0393 67.7469 89.8717 67.8117 89.7155C67.8764 89.5593 67.9716 89.4174 68.0915 89.2982L71.1949 86.1949C71.318 86.0717 71.4148 85.9248 71.4795 85.7632L72.9319 82.1322C73.485 82.7644 74.1763 83.2607 74.9522 83.5826C75.7281 83.9045 76.5677 84.0432 77.4059 83.9882C78.2441 83.9331 79.0583 83.6857 79.7854 83.265C80.5126 82.8444 81.133 82.2619 81.5986 81.5627L81.8572 81.1749L82.1156 81.5627C82.5812 82.2619 83.2016 82.8444 83.9288 83.265C84.6559 83.6857 85.4701 83.9331 86.3084 83.9882C87.1466 84.0432 87.9862 83.9045 88.7621 83.5826C89.538 83.2607 90.2293 82.7644 90.7824 82.1322L92.2348 85.7632C92.2995 85.9248 92.3963 86.0717 92.5194 86.1949ZM80.4819 78.6027L79.4593 80.1364C79.1139 80.6548 78.6109 81.0482 78.0246 81.2586C77.4383 81.469 76.7999 81.4851 76.2037 81.3046C75.6075 81.1241 75.0853 80.7565 74.7141 80.2563C74.343 79.756 74.1427 79.1496 74.1429 78.5267V76.6161C74.1438 75.8468 74.4498 75.1092 74.9938 74.5652C75.5378 74.0212 76.2754 73.7152 77.0447 73.7143H78.2212C77.8852 74.6629 77.9335 75.7053 78.3559 76.6188C78.7783 77.5322 79.5412 78.2443 80.4816 78.6027H80.4819ZM80.5714 75C80.5714 74.7457 80.6469 74.4971 80.7881 74.2857C80.9294 74.0742 81.1302 73.9095 81.3651 73.8121C81.6001 73.7148 81.8586 73.6894 82.108 73.739C82.3574 73.7886 82.5865 73.911 82.7663 74.0908C82.9461 74.2707 83.0686 74.4997 83.1182 74.7491C83.1678 74.9986 83.1423 75.2571 83.045 75.492C82.9477 75.7269 82.7829 75.9277 82.5715 76.069C82.36 76.2103 82.1115 76.2857 81.8572 76.2857C81.5163 76.2853 81.1895 76.1497 80.9484 75.9087C80.7074 75.6677 80.5718 75.3409 80.5714 75ZM85.4932 73.7143H86.6696C87.4389 73.7152 88.1765 74.0212 88.7205 74.5652C89.2645 75.1092 89.5706 75.8468 89.5714 76.6161V78.5267C89.5714 79.1495 89.371 79.7557 88.9999 80.2559C88.6288 80.756 88.1066 81.1235 87.5105 81.304C86.9145 81.4844 86.2762 81.4684 85.6899 81.2581C85.1037 81.0479 84.6007 80.6546 84.2552 80.1364L83.2327 78.6027C84.1731 78.2443 84.936 77.5322 85.3584 76.6188C85.7808 75.7053 85.8291 74.6629 85.4932 73.7143ZM92.1429 52.3778C92.1422 52.0005 92.2249 51.6277 92.3849 51.286C92.545 50.9442 92.7786 50.6421 93.0689 50.4011L98.6049 45.7873C98.8837 45.556 99.2345 45.4291 99.5968 45.4286C99.7998 45.4285 100.001 45.4685 100.189 45.5462C100.376 45.6238 100.547 45.7377 100.69 45.8813C100.834 46.0249 100.948 46.1953 101.025 46.3829C101.103 46.5705 101.143 46.7716 101.143 46.9746V52.0323C101.144 52.6233 101.029 53.2088 100.803 53.7548C100.576 54.3009 100.244 54.7966 99.825 55.2133L97.6618 57.3765C97.4209 57.6177 97.2856 57.9448 97.2857 58.2857V63.8143C97.2871 64.2324 97.1713 64.6426 96.9515 64.9984C96.7317 65.3542 96.4167 65.6413 96.0421 65.8272L94.7143 66.4911V60.2834C94.714 59.8244 94.6625 59.3669 94.5605 58.9194L98.3143 53.9143C98.4812 53.6917 98.5714 53.421 98.5714 53.1428V50.5714C98.5714 50.2304 98.436 49.9034 98.1949 49.6623C97.9537 49.4212 97.6267 49.2857 97.2857 49.2857C96.9447 49.2857 96.6177 49.4212 96.3766 49.6623C96.1355 49.9034 96 50.2304 96 50.5714V52.7142L93.2754 56.3464C93.1642 56.2149 93.0482 56.0865 92.9251 55.9632L92.9026 55.9407C92.6672 55.7069 92.4131 55.4926 92.1429 55.3V52.3778ZM72.6076 57.7822L72.6301 57.7597C73.1742 57.2162 73.8807 56.8648 74.6424 56.7586L74.7663 56.7396C79.4654 56.0689 84.236 56.0682 88.9353 56.7377L89.0872 56.7608C89.8432 56.8696 90.5438 57.22 91.0842 57.7597L91.1067 57.7822C91.4363 58.1099 91.6975 58.4997 91.8753 58.929C92.0532 59.3583 92.1441 59.8187 92.1429 60.2834V72.1809L91.4401 73.9378C90.9644 73.0906 90.2718 72.3852 89.4335 71.894C88.5951 71.4029 87.6412 71.1436 86.6696 71.1428H77.0447C76.0731 71.1436 75.1192 71.4029 74.2808 71.894C73.4425 72.3852 72.7499 73.0906 72.2743 73.9378L71.5715 72.1809V60.2834C71.5702 59.8187 71.6611 59.3583 71.839 58.929C72.0168 58.4997 72.2781 58.1099 72.6076 57.7822ZM62.5715 46.9746C62.5714 46.7716 62.6114 46.5705 62.6891 46.3829C62.7667 46.1953 62.8806 46.0249 63.0242 45.8813C63.1678 45.7377 63.3382 45.6238 63.5258 45.5462C63.7134 45.4685 63.9145 45.4285 64.1175 45.4286C64.479 45.4292 64.8289 45.5557 65.1072 45.7863L70.6462 50.4025C70.9362 50.6434 71.1695 50.9454 71.3295 51.2868C71.4894 51.6283 71.572 52.0008 71.5715 52.3778V55.3001C71.3012 55.4928 71.0471 55.7073 70.8118 55.9414L70.7893 55.9639C70.6662 56.0871 70.5501 56.2155 70.4389 56.347L67.7143 52.7142V50.5714C67.7143 50.2304 67.5789 49.9034 67.3377 49.6623C67.0966 49.4212 66.7696 49.2857 66.4286 49.2857C66.0876 49.2857 65.7606 49.4212 65.5195 49.6623C65.2783 49.9034 65.1429 50.2304 65.1429 50.5714V53.1428C65.1429 53.421 65.2331 53.6917 65.4 53.9143L69.1538 58.9194C69.0519 59.3669 69.0003 59.8244 69 60.2834V66.4911L67.6728 65.8275C67.2981 65.6416 66.983 65.3545 66.7631 64.9987C66.5431 64.6429 66.4273 64.2326 66.4286 63.8143V58.2857C66.4286 58.1169 66.3954 57.9497 66.3307 57.7937C66.2661 57.6377 66.1714 57.4959 66.052 57.3765L63.8893 55.2133C63.4702 54.7966 63.1379 54.3009 62.9117 53.7548C62.6855 53.2088 62.5699 52.6233 62.5715 52.0323V46.9746Z" fill="black"/>
<path d="M112.714 73.7143V72.4286H114V69.8571H112.714V68.5714H110.143V69.8571H108.857V72.4286H110.143V73.7143H112.714Z" fill="black"/>
<path d="M105 81.4286H107.571V84H105V81.4286Z" fill="black"/>
<path d="M105 86.5714H107.571V91.7143H105V86.5714Z" fill="black"/>
</svg>
